<svg xmlns="http://www.w3.org/2000/svg" xmlns:xlink="http://www.w3.org/1999/xlink" width="1909" height="121.931" viewBox="0 0 1909 121.931"><defs><clipPath id="a"><rect width="121.931" height="640" fill="none"/></clipPath></defs><g transform="translate(-11 -4026.069)"><g transform="translate(651 4026.069) rotate(90)" opacity="0.25"><g clip-path="url(#a)"><path d="M42.3,63.735h0a6.23,6.23,0,0,1-1.38-.149A3.415,3.415,0,0,1,38.416,62l-.023-.04-.02-.041c-.951-1.93-1.978-3.886-2.97-5.778C33.947,53.369,32.444,50.5,31.11,47.6c-1.88-1.3-3.8-2.615-5.662-3.885-5.554-3.79-11.3-7.708-16.694-11.964-.862-.624-2.954-2.268-5.016-4.111C.253,24.521-.552,23.169-.845,22.425a8.147,8.147,0,0,1-.382-5.34l0-.016A6.953,6.953,0,0,1,5.049,11.98a7.543,7.543,0,0,1,4.868,1.643c.617.444,2.221,1.919,4.25,3.8.656.607,1.222,1.132,1.445,1.327l.011.01c2.546,2.276,5.144,4.555,7.711,6.787-1.109-2.462-2.162-4.942-3.122-7.484a49.836,49.836,0,0,1-1.768-5.033c-1.1-3.767-.982-5.156-.788-5.869a7.659,7.659,0,0,1,2.71-4.131l.011-.009A8.614,8.614,0,0,1,25.5,1.261a6.127,6.127,0,0,1,2.612.548,5.991,5.991,0,0,1,3.192,3.317c.243.554.627,1.912,1.333,4.527.18.667.35,1.3.418,1.518l.005.018c.919,3.136,1.892,6.3,2.873,9.422.507-2.673,1.087-5.461,1.759-8.209.191-.965.766-3.341,1.534-5.759,1.312-4.132,2.2-5.327,2.757-5.858a7.9,7.9,0,0,1,4.645-2.256l.015,0c.253-.025.512-.038.769-.038A7.2,7.2,0,0,1,53.807,2.02a6.8,6.8,0,0,1,.629,4.849c-.137.707-.776,2.618-1.6,5.038-.257.758-.478,1.413-.556,1.665l0,.014c-1.775,5.6-3.473,11.337-5.115,16.883-1.093,3.693-2.223,7.51-3.368,11.26.811,2.648,1.665,5.326,2.492,7.92.819,2.568,1.665,5.223,2.47,7.847l0,.006a3.511,3.511,0,0,1-.135,2.977,6.085,6.085,0,0,1-2.705,2.392A8.458,8.458,0,0,1,42.3,63.735ZM41.03,60.476a.916.916,0,0,0,.382.128l.073.01.072.017a3.169,3.169,0,0,0,.74.081A4.678,4.678,0,0,0,45.98,59.02l.031-.055a2.958,2.958,0,0,0-.14-.581c-.8-2.61-1.644-5.257-2.461-7.817-.876-2.749-1.783-5.591-2.64-8.4l-.138-.453.145-.451c.042-.129.074-.233.1-.326v0c1.15-3.765,2.286-7.605,3.386-11.32,1.645-5.558,3.346-11.305,5.13-16.932.092-.3.308-.936.581-1.742C50.43,9.6,51.372,6.82,51.468,6.3l.009-.045a3.821,3.821,0,0,0-.322-2.78l-.03-.056a4.248,4.248,0,0,0-3.714-1.9c-.154,0-.31.008-.461.022A4.935,4.935,0,0,0,44.1,2.944l-.026.025c-.074.07-.761.795-1.965,4.588-.7,2.2-1.272,4.52-1.455,5.459l-.016.071c-1.186,4.842-2.083,9.84-2.8,14.091l-1.044,6.158-2.047-6.462c-1.535-4.847-3.122-9.858-4.578-14.827-.084-.275-.243-.864-.443-1.606-.321-1.189-.988-3.662-1.18-4.1L28.52,6.3A2.991,2.991,0,0,0,26.886,4.57l-.057-.026A3.093,3.093,0,0,0,25.5,4.283a5.613,5.613,0,0,0-3.282,1.133,4.687,4.687,0,0,0-1.635,2.5l-.01.039c-.009.034-.211.873.777,4.244A46.585,46.585,0,0,0,23,16.882l.03.075c1.758,4.659,3.857,9.144,6.033,13.71l3.1,6.495-5.447-4.7c-4.237-3.657-8.737-7.552-13.093-11.446-.257-.226-.807-.734-1.5-1.377-1.214-1.124-3.474-3.217-3.962-3.561l-.034-.025A4.542,4.542,0,0,0,5.149,15H5.085A3.988,3.988,0,0,0,1.674,17.93a5.2,5.2,0,0,0,.278,3.349l.013.034c.068.175.57,1.2,3.789,4.075C7.645,27.079,9.7,28.7,10.549,29.319l.053.04c5.322,4.2,11.03,8.093,16.55,11.86,1.978,1.35,4.024,2.746,6.024,4.136l.342.238.172.379c1.34,2.955,2.89,5.91,4.389,8.767C39.061,56.612,40.077,58.548,41.03,60.476Z" transform="translate(1.517 576.26)" fill="#e7e7e7"/><path d="M16.807,64.387a8.03,8.03,0,0,1-5.535-2.178,3.408,3.408,0,0,1-1.239-2.692l0-.044.005-.044c.25-2.137.45-4.336.645-6.462.285-3.121.579-6.343,1.038-9.506-.867-2.108-1.763-4.243-2.632-6.311C6.483,30.942,3.786,24.523,1.565,18.01,1.18,17.018.316,14.5-.413,11.833-1.646,7.319-1.587,5.748-1.429,4.963A8.147,8.147,0,0,1,1.151.273l.012-.01A7.478,7.478,0,0,1,5.931-1.511,6.048,6.048,0,0,1,9.194-.6a7.545,7.545,0,0,1,3.194,4.024c.277.708.823,2.821,1.508,5.506.22.862.409,1.606.49,1.891l0,.014c.9,3.307,1.836,6.59,2.787,9.887.407-2.669.869-5.323,1.444-7.98a49.807,49.807,0,0,1,1.25-5.186C20.992,3.793,21.848,2.692,22.4,2.2a7.655,7.655,0,0,1,4.519-2h.014c.214-.017.432-.025.649-.025a7.744,7.744,0,0,1,6.5,3.211,5.984,5.984,0,0,1,.878,4.519c-.1.6-.518,1.966-1.356,4.576-.213.663-.4,1.235-.46,1.454l0,.014c-.932,3.133-1.831,6.314-2.707,9.474,1.878-1.969,3.879-3.995,5.936-5.938.685-.707,2.46-2.39,4.418-4,3.345-2.755,4.74-3.276,5.5-3.42a8.2,8.2,0,0,1,1.665-.171,7.742,7.742,0,0,1,3.461.8l.013.006a7.344,7.344,0,0,1,4.116,6.824,6.8,6.8,0,0,1-2.106,4.413c-.5.518-2.072,1.774-4.072,3.36-.629.5-1.172.929-1.375,1.1l-.011.01c-4.54,3.743-9.087,7.641-13.485,11.41-2.918,2.5-5.935,5.087-8.927,7.609-.748,2.633-1.477,5.313-2.184,7.91-.716,2.632-1.456,5.353-2.216,8.025v0a3.514,3.514,0,0,1-1.731,2.427A5.543,5.543,0,0,1,16.807,64.387Zm-3.75-4.726a.926.926,0,0,0,.251.314l.056.048.051.053a5.074,5.074,0,0,0,3.393,1.289,2.58,2.58,0,0,0,1.2-.238l.055-.029a2.952,2.952,0,0,0,.2-.565c.756-2.657,1.494-5.369,2.207-7.993.749-2.753,1.523-5.6,2.321-8.394l.131-.458.369-.3c.083-.068.165-.136.246-.2l.02-.017c3-2.529,6.037-5.131,8.972-7.647,4.406-3.777,8.963-7.683,13.523-11.443.239-.2.768-.62,1.437-1.15,1.1-.876,3.4-2.7,3.771-3.086l.032-.032A3.818,3.818,0,0,0,52.526,17.3l.005-.064a4.359,4.359,0,0,0-2.483-3.846,4.709,4.709,0,0,0-2.1-.475,5.167,5.167,0,0,0-1.061.11l-.038.007c-.1.018-1.07.253-4.142,2.784-1.784,1.47-3.523,3.1-4.188,3.793l-.051.05c-3.625,3.423-7.094,7.132-10.008,10.308l-4.219,4.6,1.694-6.183c1.375-5.018,2.8-10.208,4.307-15.288.077-.268.257-.829.485-1.537.381-1.187,1.174-3.657,1.25-4.131l.008-.049a2.986,2.986,0,0,0-.433-2.337l-.035-.055A4.86,4.86,0,0,0,27.58,3.2c-.136,0-.272.005-.4.016a4.683,4.683,0,0,0-2.73,1.207l-.031.028c-.026.023-.652.618-1.653,3.985A46.559,46.559,0,0,0,21.6,13.263l-.015.079c-1.056,4.868-1.73,9.773-2.382,14.788l-.929,7.136-2.02-6.907c-1.644-5.623-3.247-11.133-4.775-16.722-.093-.327-.277-1.05-.509-1.963C10.558,8.068,9.8,5.079,9.574,4.523l-.015-.039a4.553,4.553,0,0,0-1.922-2.5l-.055-.034a3.034,3.034,0,0,0-1.651-.443,4.411,4.411,0,0,0-2.8,1.048A5.2,5.2,0,0,0,1.541,5.522l-.007.035c-.038.184-.17,1.313.968,5.479.669,2.448,1.508,4.927,1.89,5.906L4.415,17c2.19,6.425,4.87,12.805,7.463,18.975.924,2.2,1.88,4.474,2.8,6.719l.158.385-.062.412c-.482,3.209-.785,6.532-1.078,9.746C13.5,55.348,13.3,57.524,13.057,59.661Z" transform="translate(66.36 511.432)" fill="#e7e7e7"/><path d="M42.3,63.735a6.228,6.228,0,0,1-1.38-.149A3.415,3.415,0,0,1,38.416,62l-.023-.04-.02-.041c-.951-1.93-1.978-3.886-2.97-5.778C33.946,53.368,32.444,50.5,31.11,47.6c-1.88-1.3-3.8-2.615-5.661-3.885-5.554-3.79-11.3-7.708-16.694-11.964-.862-.624-2.954-2.268-5.016-4.112C.252,24.52-.552,23.169-.845,22.424a8.146,8.146,0,0,1-.382-5.34l0-.016A6.952,6.952,0,0,1,5.049,11.98a7.543,7.543,0,0,1,4.868,1.643c.617.444,2.221,1.919,4.25,3.8.656.607,1.222,1.132,1.445,1.327l.012.01c2.546,2.276,5.144,4.555,7.711,6.787-1.109-2.462-2.162-4.942-3.122-7.484a49.828,49.828,0,0,1-1.768-5.033c-1.1-3.766-.982-5.156-.788-5.869a7.659,7.659,0,0,1,2.71-4.131l.011-.009A8.615,8.615,0,0,1,25.5,1.261a6.127,6.127,0,0,1,2.612.548,5.991,5.991,0,0,1,3.192,3.317c.243.554.627,1.912,1.333,4.527.18.667.35,1.3.418,1.519l.005.018c.919,3.136,1.892,6.3,2.873,9.422.507-2.673,1.087-5.461,1.759-8.209.191-.965.766-3.341,1.534-5.759,1.312-4.132,2.2-5.327,2.757-5.858a7.9,7.9,0,0,1,4.645-2.256l.015,0c.253-.025.512-.038.769-.038A7.2,7.2,0,0,1,53.807,2.02a6.8,6.8,0,0,1,.629,4.849c-.137.707-.776,2.618-1.6,5.039-.257.758-.478,1.412-.555,1.665l0,.014c-1.775,5.6-3.473,11.336-5.115,16.883-1.093,3.693-2.223,7.511-3.368,11.261.811,2.648,1.665,5.326,2.492,7.921.819,2.567,1.665,5.222,2.47,7.847l0,.006a3.511,3.511,0,0,1-.135,2.977,6.086,6.086,0,0,1-2.705,2.392A8.458,8.458,0,0,1,42.3,63.735ZM41.03,60.476a.916.916,0,0,0,.382.128l.073.01.072.017a3.168,3.168,0,0,0,.74.081A4.678,4.678,0,0,0,45.98,59.02l.031-.055a2.956,2.956,0,0,0-.14-.581c-.8-2.61-1.644-5.257-2.46-7.816-.876-2.749-1.783-5.591-2.64-8.4l-.138-.453.145-.451c.042-.129.074-.233.1-.326v0c1.15-3.765,2.287-7.606,3.386-11.32,1.645-5.558,3.346-11.3,5.129-16.931.091-.3.308-.936.58-1.742C50.43,9.6,51.372,6.82,51.468,6.3l.009-.045a3.821,3.821,0,0,0-.322-2.78l-.03-.056a4.248,4.248,0,0,0-3.714-1.9c-.155,0-.31.008-.462.022A4.935,4.935,0,0,0,44.1,2.944l-.026.025c-.074.07-.761.795-1.965,4.588-.7,2.205-1.272,4.52-1.455,5.459l-.016.071c-1.186,4.842-2.083,9.84-2.8,14.091l-1.044,6.158-2.047-6.462c-1.535-4.846-3.122-9.858-4.578-14.827-.084-.275-.243-.864-.443-1.607-.321-1.189-.988-3.662-1.18-4.1L28.52,6.3A2.991,2.991,0,0,0,26.886,4.57l-.057-.026A3.093,3.093,0,0,0,25.5,4.283a5.613,5.613,0,0,0-3.282,1.133,4.687,4.687,0,0,0-1.635,2.5l-.01.039c-.009.034-.211.873.778,4.244A46.581,46.581,0,0,0,23,16.882l.031.075c1.758,4.659,3.857,9.144,6.033,13.71l3.1,6.495-5.447-4.7c-4.237-3.657-8.737-7.552-13.092-11.445-.257-.225-.807-.734-1.5-1.378-1.214-1.124-3.474-3.216-3.962-3.561l-.034-.025A4.542,4.542,0,0,0,5.149,15H5.085A3.988,3.988,0,0,0,1.674,17.93a5.2,5.2,0,0,0,.278,3.349l.013.034c.068.175.57,1.2,3.789,4.075C7.645,27.079,9.7,28.7,10.549,29.319l.053.04c5.322,4.2,11.03,8.093,16.55,11.86,1.978,1.35,4.024,2.746,6.023,4.136l.342.238.172.379c1.34,2.955,2.89,5.91,4.389,8.767C39.061,56.612,40.077,58.547,41.03,60.476Z" transform="translate(1.517 448.781)" fill="#e7e7e7"/><path d="M16.807,64.386h0a8.03,8.03,0,0,1-5.535-2.178,3.408,3.408,0,0,1-1.238-2.692l0-.044.005-.044c.25-2.137.451-4.336.645-6.462.285-3.121.579-6.343,1.038-9.506-.867-2.108-1.764-4.243-2.633-6.312C6.483,30.942,3.786,24.523,1.565,18.01,1.18,17.018.316,14.5-.413,11.833-1.646,7.319-1.587,5.748-1.429,4.963A8.147,8.147,0,0,1,1.151.273l.012-.01A7.478,7.478,0,0,1,5.931-1.511,6.048,6.048,0,0,1,9.194-.6a7.544,7.544,0,0,1,3.194,4.025c.277.708.824,2.821,1.508,5.506.22.862.409,1.606.49,1.89l0,.014c.9,3.307,1.836,6.59,2.787,9.887.407-2.669.869-5.323,1.444-7.98a49.809,49.809,0,0,1,1.25-5.186C20.992,3.793,21.848,2.692,22.4,2.2a7.655,7.655,0,0,1,4.519-2h.014c.214-.017.432-.025.649-.025a7.743,7.743,0,0,1,6.5,3.211,5.984,5.984,0,0,1,.878,4.519c-.1.6-.518,1.965-1.356,4.575-.213.663-.4,1.236-.46,1.455l0,.014c-.932,3.133-1.831,6.315-2.707,9.473,1.878-1.969,3.879-3.995,5.936-5.938.685-.707,2.46-2.39,4.418-4,3.344-2.755,4.74-3.276,5.5-3.42a8.2,8.2,0,0,1,1.666-.171,7.742,7.742,0,0,1,3.461.8l.013.006a7.342,7.342,0,0,1,4.116,6.823,6.8,6.8,0,0,1-2.106,4.414c-.5.517-2.071,1.774-4.071,3.359-.629.5-1.173.929-1.375,1.1l-.011.01c-4.54,3.743-9.087,7.641-13.485,11.411-2.918,2.5-5.934,5.087-8.926,7.609-.748,2.633-1.477,5.313-2.184,7.909-.716,2.632-1.457,5.353-2.216,8.025v0a3.513,3.513,0,0,1-1.731,2.427A5.545,5.545,0,0,1,16.807,64.386Zm-3.751-4.726a.926.926,0,0,0,.251.314l.056.048.051.053a5.074,5.074,0,0,0,3.393,1.288h0a2.583,2.583,0,0,0,1.2-.238l.054-.029a2.953,2.953,0,0,0,.2-.565c.756-2.657,1.494-5.37,2.208-7.993.749-2.753,1.523-5.6,2.321-8.393l.131-.458.369-.3c.083-.067.164-.136.245-.2l.022-.018c3-2.529,6.037-5.13,8.972-7.647,4.406-3.777,8.963-7.683,13.523-11.443.239-.2.769-.621,1.438-1.151,1.1-.876,3.4-2.7,3.77-3.085l.031-.032A3.819,3.819,0,0,0,52.526,17.3l.005-.065a4.358,4.358,0,0,0-2.484-3.845,4.709,4.709,0,0,0-2.1-.475,5.167,5.167,0,0,0-1.061.11l-.038.007c-.1.018-1.07.253-4.142,2.784-1.784,1.47-3.523,3.1-4.188,3.793l-.051.05c-3.626,3.423-7.094,7.132-10.008,10.308l-4.219,4.6,1.693-6.181c1.375-5.019,2.8-10.208,4.307-15.288.077-.268.258-.829.485-1.539.381-1.187,1.174-3.656,1.25-4.13l.008-.049a2.986,2.986,0,0,0-.433-2.337l-.035-.055A4.859,4.859,0,0,0,27.58,3.2c-.136,0-.271.005-.4.015a4.683,4.683,0,0,0-2.73,1.207l-.031.028c-.026.023-.652.618-1.653,3.985A46.56,46.56,0,0,0,21.6,13.263l-.015.079c-1.056,4.868-1.73,9.773-2.382,14.788l-.929,7.136-2.02-6.907C14.607,22.735,13,17.224,11.477,11.636c-.093-.327-.277-1.05-.509-1.963-.409-1.606-1.171-4.6-1.393-5.151l-.015-.039a4.553,4.553,0,0,0-1.922-2.5l-.055-.034a3.034,3.034,0,0,0-1.651-.443,4.412,4.412,0,0,0-2.8,1.048A5.2,5.2,0,0,0,1.541,5.522l-.007.035c-.038.184-.17,1.313.968,5.479.669,2.448,1.508,4.927,1.89,5.906L4.415,17c2.19,6.425,4.87,12.8,7.463,18.975.924,2.2,1.88,4.474,2.8,6.719l.158.385-.062.412c-.482,3.209-.785,6.532-1.078,9.746C13.5,55.348,13.3,57.524,13.057,59.661Z" transform="translate(66.36 383.953)" fill="#e7e7e7"/><path d="M42.3,63.734h0a6.23,6.23,0,0,1-1.38-.149A3.415,3.415,0,0,1,38.416,62l-.023-.04-.02-.041c-.951-1.93-1.978-3.886-2.97-5.778C33.946,53.368,32.444,50.5,31.11,47.6c-1.881-1.3-3.8-2.615-5.662-3.885-5.554-3.789-11.3-7.708-16.693-11.964-.862-.624-2.954-2.268-5.016-4.112C.253,24.521-.552,23.169-.845,22.424a8.147,8.147,0,0,1-.382-5.34l0-.016A6.953,6.953,0,0,1,5.049,11.98a7.543,7.543,0,0,1,4.868,1.643c.616.443,2.219,1.917,4.248,3.795.657.608,1.224,1.133,1.448,1.329l.012.01c2.546,2.276,5.144,4.555,7.71,6.786-1.108-2.46-2.161-4.939-3.122-7.484a49.831,49.831,0,0,1-1.768-5.033c-1.1-3.767-.982-5.157-.788-5.869a7.659,7.659,0,0,1,2.71-4.131l.011-.009A8.615,8.615,0,0,1,25.5,1.26a6.127,6.127,0,0,1,2.612.548,5.99,5.99,0,0,1,3.192,3.317c.243.554.627,1.912,1.332,4.526.18.667.35,1.3.418,1.519l.005.018c.919,3.136,1.892,6.3,2.873,9.422.507-2.673,1.087-5.461,1.759-8.209.191-.965.766-3.341,1.534-5.759,1.311-4.131,2.2-5.326,2.757-5.858a7.9,7.9,0,0,1,4.645-2.257l.016,0c.253-.025.51-.038.766-.038a7.2,7.2,0,0,1,6.4,3.53,6.8,6.8,0,0,1,.629,4.85c-.137.707-.776,2.619-1.6,5.039-.257.758-.478,1.412-.555,1.665l0,.014c-1.775,5.6-3.473,11.336-5.115,16.882-1.093,3.693-2.223,7.511-3.368,11.261.811,2.648,1.665,5.326,2.492,7.921.819,2.567,1.665,5.222,2.47,7.847l0,.006a3.511,3.511,0,0,1-.135,2.977,6.085,6.085,0,0,1-2.705,2.392A8.457,8.457,0,0,1,42.3,63.734ZM41.03,60.476a.916.916,0,0,0,.382.128l.073.01.072.017a3.17,3.17,0,0,0,.74.081h0A4.678,4.678,0,0,0,45.98,59.02l.031-.055a2.957,2.957,0,0,0-.14-.581c-.8-2.61-1.644-5.257-2.46-7.816-.876-2.749-1.783-5.591-2.64-8.4l-.138-.453.145-.451c.041-.129.074-.232.1-.326v0c1.15-3.765,2.287-7.606,3.386-11.321,1.645-5.558,3.346-11.3,5.129-16.93.091-.3.308-.936.58-1.742C50.43,9.6,51.372,6.82,51.468,6.3l.009-.045a3.82,3.82,0,0,0-.322-2.78l-.03-.056a4.25,4.25,0,0,0-3.716-1.9c-.154,0-.308.007-.459.022A4.935,4.935,0,0,0,44.1,2.944l-.026.025c-.074.07-.761.795-1.965,4.588-.7,2.2-1.272,4.52-1.455,5.459l-.016.071c-1.186,4.842-2.083,9.84-2.8,14.091l-1.044,6.158-2.046-6.461c-1.535-4.847-3.123-9.858-4.578-14.828-.084-.275-.243-.864-.443-1.607-.321-1.189-.988-3.662-1.18-4.1L28.52,6.3A2.991,2.991,0,0,0,26.886,4.57l-.057-.026A3.093,3.093,0,0,0,25.5,4.282a5.613,5.613,0,0,0-3.282,1.133,4.687,4.687,0,0,0-1.635,2.5l-.01.039c-.009.034-.211.873.777,4.244A46.582,46.582,0,0,0,23,16.882l.03.075c1.761,4.668,3.859,9.149,6.033,13.71l3.1,6.5-5.448-4.7c-4.236-3.656-8.735-7.55-13.092-11.445-.257-.225-.808-.735-1.5-1.38-1.214-1.123-3.472-3.214-3.96-3.56l-.033-.024A4.542,4.542,0,0,0,5.149,15H5.085A3.988,3.988,0,0,0,1.674,17.93a5.2,5.2,0,0,0,.278,3.349l.013.034c.068.175.57,1.2,3.789,4.075C7.645,27.079,9.7,28.7,10.549,29.319l.053.04c5.322,4.2,11.03,8.093,16.55,11.86,1.978,1.35,4.024,2.746,6.024,4.136l.342.238.172.379c1.34,2.955,2.89,5.91,4.389,8.767C39.061,56.611,40.077,58.547,41.03,60.476Z" transform="translate(1.517 321.303)" fill="#e7e7e7"/><path d="M16.807,64.387h0a8.03,8.03,0,0,1-5.535-2.178,3.408,3.408,0,0,1-1.238-2.692l0-.044.005-.044c.25-2.137.45-4.336.645-6.462.285-3.121.579-6.343,1.038-9.506-.867-2.108-1.764-4.243-2.633-6.312C6.483,30.942,3.786,24.523,1.565,18.01,1.18,17.018.316,14.5-.413,11.833-1.646,7.319-1.587,5.748-1.429,4.963A8.147,8.147,0,0,1,1.151.273l.012-.01A7.478,7.478,0,0,1,5.931-1.511,6.048,6.048,0,0,1,9.194-.6a7.544,7.544,0,0,1,3.194,4.024c.277.708.824,2.821,1.508,5.506.22.862.409,1.606.49,1.89l0,.014c.9,3.307,1.836,6.59,2.787,9.887.407-2.669.869-5.323,1.444-7.98a49.807,49.807,0,0,1,1.25-5.186C20.992,3.793,21.848,2.691,22.4,2.2a7.655,7.655,0,0,1,4.519-2h.014c.214-.017.432-.025.649-.025a7.743,7.743,0,0,1,6.5,3.211,5.985,5.985,0,0,1,.879,4.519c-.1.6-.518,1.965-1.356,4.574-.213.663-.4,1.236-.46,1.456l0,.014c-.932,3.133-1.831,6.314-2.707,9.473,1.878-1.969,3.879-3.995,5.936-5.938.685-.707,2.46-2.39,4.417-4,3.344-2.755,4.74-3.276,5.5-3.42a8.2,8.2,0,0,1,1.666-.171,7.742,7.742,0,0,1,3.461.8l.013.006a7.343,7.343,0,0,1,4.116,6.824,6.8,6.8,0,0,1-2.106,4.413c-.5.518-2.072,1.774-4.072,3.36-.629.5-1.172.929-1.375,1.1l-.011.01c-4.54,3.743-9.087,7.641-13.485,11.411-2.918,2.5-5.935,5.087-8.927,7.609-.748,2.633-1.477,5.313-2.184,7.909-.716,2.632-1.456,5.353-2.216,8.025v0a3.513,3.513,0,0,1-1.731,2.427A5.542,5.542,0,0,1,16.807,64.387Zm-3.75-4.726a.926.926,0,0,0,.251.314l.056.048.051.053a5.074,5.074,0,0,0,3.393,1.289,2.572,2.572,0,0,0,1.2-.238l.055-.029a2.953,2.953,0,0,0,.2-.565c.756-2.657,1.494-5.37,2.208-7.993.749-2.753,1.523-5.6,2.321-8.393l.131-.458.369-.3c.083-.068.165-.136.246-.2l.02-.017c3-2.529,6.037-5.131,8.972-7.647,4.406-3.777,8.963-7.683,13.523-11.443.239-.2.768-.62,1.437-1.15,1.1-.876,3.4-2.7,3.771-3.086l.032-.032A3.818,3.818,0,0,0,52.526,17.3l.005-.064a4.359,4.359,0,0,0-2.484-3.846,4.709,4.709,0,0,0-2.1-.475,5.167,5.167,0,0,0-1.061.11l-.038.007c-.1.018-1.07.253-4.142,2.784-1.784,1.47-3.523,3.1-4.188,3.793l-.051.05c-3.626,3.423-7.094,7.132-10.008,10.308l-4.219,4.6,1.693-6.18c1.375-5.019,2.8-10.209,4.307-15.29.077-.268.258-.83.485-1.539.381-1.187,1.174-3.656,1.25-4.13l.008-.049a2.986,2.986,0,0,0-.433-2.337l-.035-.055A4.859,4.859,0,0,0,27.58,3.2c-.136,0-.272.005-.4.016a4.682,4.682,0,0,0-2.729,1.207l-.031.028c-.026.023-.652.618-1.653,3.985A46.562,46.562,0,0,0,21.6,13.263l-.015.079c-1.056,4.868-1.73,9.773-2.382,14.788l-.929,7.136-2.02-6.907c-1.644-5.623-3.247-11.133-4.775-16.721-.093-.327-.277-1.05-.509-1.963-.409-1.606-1.171-4.6-1.393-5.151l-.015-.039a4.553,4.553,0,0,0-1.922-2.5l-.055-.034a3.034,3.034,0,0,0-1.651-.443,4.411,4.411,0,0,0-2.8,1.048A5.2,5.2,0,0,0,1.541,5.522l-.007.035c-.038.184-.17,1.313.968,5.479.669,2.448,1.508,4.927,1.89,5.906L4.415,17c2.19,6.425,4.87,12.8,7.462,18.975.924,2.2,1.88,4.475,2.8,6.719l.158.385-.062.412c-.482,3.209-.785,6.532-1.078,9.746C13.5,55.348,13.3,57.524,13.057,59.661Z" transform="translate(66.36 256.475)" fill="#e7e7e7"/><path d="M42.3,63.734h0a6.228,6.228,0,0,1-1.38-.149A3.415,3.415,0,0,1,38.416,62l-.023-.04-.02-.041c-.951-1.93-1.978-3.886-2.97-5.778C33.946,53.368,32.444,50.5,31.11,47.6c-1.88-1.3-3.8-2.615-5.661-3.885-5.554-3.79-11.3-7.708-16.693-11.964-.862-.624-2.955-2.268-5.016-4.112C.253,24.521-.551,23.169-.845,22.424a8.146,8.146,0,0,1-.383-5.341l0-.016A6.953,6.953,0,0,1,5.049,11.98a7.543,7.543,0,0,1,4.868,1.643c.616.443,2.219,1.917,4.248,3.795.657.608,1.225,1.134,1.448,1.329l.012.01c2.546,2.276,5.144,4.555,7.71,6.786-1.108-2.46-2.161-4.939-3.122-7.484a49.826,49.826,0,0,1-1.768-5.033c-1.1-3.767-.982-5.156-.788-5.869a7.659,7.659,0,0,1,2.71-4.131l.011-.009A8.615,8.615,0,0,1,25.5,1.26a6.127,6.127,0,0,1,2.612.548,5.991,5.991,0,0,1,3.192,3.317c.243.554.627,1.912,1.332,4.527.18.667.35,1.3.418,1.519l.005.018c.919,3.136,1.892,6.3,2.873,9.422.507-2.673,1.087-5.461,1.759-8.209.191-.965.766-3.341,1.534-5.759,1.312-4.132,2.2-5.327,2.757-5.858a7.9,7.9,0,0,1,4.645-2.256l.016,0c.253-.025.51-.038.766-.038a7.2,7.2,0,0,1,6.4,3.531,6.8,6.8,0,0,1,.629,4.85c-.137.707-.776,2.619-1.6,5.039-.257.758-.478,1.412-.555,1.665l0,.014c-1.775,5.6-3.473,11.336-5.115,16.883-1.093,3.693-2.223,7.511-3.368,11.261.811,2.648,1.665,5.327,2.493,7.921.819,2.567,1.665,5.222,2.47,7.846l0,.006a3.511,3.511,0,0,1-.135,2.977,6.085,6.085,0,0,1-2.705,2.392A8.458,8.458,0,0,1,42.3,63.734ZM41.03,60.476a.916.916,0,0,0,.382.128l.073.01.072.017a3.168,3.168,0,0,0,.74.081A4.678,4.678,0,0,0,45.98,59.02l.031-.055a2.958,2.958,0,0,0-.14-.581c-.8-2.61-1.644-5.256-2.46-7.816-.877-2.749-1.783-5.592-2.64-8.4l-.138-.453.145-.451c.042-.129.074-.232.1-.326v0c1.15-3.765,2.287-7.606,3.386-11.32,1.645-5.558,3.346-11.3,5.129-16.931.092-.3.308-.936.58-1.742C50.43,9.6,51.372,6.82,51.468,6.3l.009-.045a3.819,3.819,0,0,0-.322-2.78l-.03-.056a4.25,4.25,0,0,0-3.716-1.9c-.154,0-.308.007-.459.022A4.935,4.935,0,0,0,44.1,2.944l-.026.025c-.074.07-.761.795-1.965,4.588-.7,2.2-1.272,4.52-1.455,5.459l-.016.071c-1.186,4.842-2.083,9.84-2.8,14.091l-1.044,6.158-2.046-6.461c-1.535-4.847-3.123-9.859-4.578-14.828-.084-.275-.243-.864-.443-1.606-.321-1.189-.988-3.662-1.18-4.1L28.52,6.3A2.991,2.991,0,0,0,26.886,4.57l-.057-.026A3.093,3.093,0,0,0,25.5,4.282a5.613,5.613,0,0,0-3.282,1.133,4.687,4.687,0,0,0-1.636,2.5l-.01.039c-.009.034-.211.873.777,4.244A46.585,46.585,0,0,0,23,16.882l.031.075c1.761,4.668,3.858,9.149,6.033,13.71l3.1,6.5-5.448-4.7c-4.236-3.656-8.737-7.552-13.093-11.446-.258-.226-.808-.735-1.5-1.379-1.214-1.123-3.472-3.214-3.96-3.56l-.033-.024A4.542,4.542,0,0,0,5.149,15H5.085A3.988,3.988,0,0,0,1.674,17.93a5.2,5.2,0,0,0,.278,3.349l.013.034c.068.175.57,1.2,3.789,4.074C7.645,27.079,9.7,28.7,10.549,29.319l.053.04c5.322,4.2,11.03,8.093,16.55,11.86,1.978,1.35,4.024,2.746,6.023,4.136l.342.238.172.379c1.34,2.955,2.89,5.91,4.389,8.767C39.061,56.611,40.077,58.547,41.03,60.476Z" transform="translate(1.517 193.824)" fill="#e7e7e7"/><path d="M16.807,64.387h0a8.029,8.029,0,0,1-5.535-2.178,3.408,3.408,0,0,1-1.238-2.691l0-.044.005-.044c.25-2.137.45-4.336.645-6.462.285-3.121.579-6.343,1.038-9.506-.867-2.108-1.764-4.243-2.633-6.311C6.483,30.942,3.786,24.523,1.565,18.01,1.18,17.018.316,14.5-.413,11.833-1.646,7.319-1.587,5.748-1.429,4.963A8.147,8.147,0,0,1,1.151.273l.012-.01A7.478,7.478,0,0,1,5.931-1.511,6.049,6.049,0,0,1,9.194-.6a7.545,7.545,0,0,1,3.194,4.025c.277.708.823,2.821,1.507,5.505.22.862.409,1.606.49,1.89l0,.014c.9,3.307,1.836,6.59,2.787,9.887.407-2.669.869-5.323,1.444-7.98a49.807,49.807,0,0,1,1.25-5.186C20.992,3.792,21.848,2.691,22.4,2.2a7.655,7.655,0,0,1,4.519-2h.014c.214-.017.432-.025.649-.025a7.743,7.743,0,0,1,6.5,3.211,5.984,5.984,0,0,1,.878,4.519c-.1.6-.518,1.966-1.356,4.575-.213.663-.4,1.236-.46,1.455l0,.014c-.932,3.133-1.831,6.314-2.707,9.473,1.878-1.969,3.879-3.995,5.936-5.938.685-.707,2.46-2.39,4.417-4,3.344-2.755,4.74-3.276,5.5-3.42a8.2,8.2,0,0,1,1.666-.171,7.742,7.742,0,0,1,3.461.8l.013.006a7.343,7.343,0,0,1,4.116,6.824,6.8,6.8,0,0,1-2.106,4.413c-.5.517-2.071,1.774-4.072,3.36-.629.5-1.172.929-1.375,1.1l-.011.01c-4.54,3.743-9.087,7.641-13.484,11.41-2.918,2.5-5.935,5.087-8.927,7.609-.748,2.633-1.477,5.313-2.184,7.91-.716,2.632-1.456,5.353-2.216,8.025v0a3.514,3.514,0,0,1-1.731,2.427A5.543,5.543,0,0,1,16.807,64.387Zm-3.75-4.726a.926.926,0,0,0,.251.314l.056.048.051.053a5.074,5.074,0,0,0,3.393,1.289h0a2.58,2.58,0,0,0,1.2-.238l.055-.029a2.954,2.954,0,0,0,.2-.565c.756-2.657,1.494-5.369,2.207-7.993.749-2.753,1.523-5.6,2.321-8.394l.131-.458.369-.3c.084-.069.167-.138.249-.207l.017-.014c3-2.529,6.037-5.131,8.972-7.647,4.406-3.777,8.963-7.683,13.523-11.443.239-.2.769-.62,1.437-1.15,1.1-.876,3.4-2.7,3.77-3.086l.032-.032A3.818,3.818,0,0,0,52.526,17.3l.005-.064a4.359,4.359,0,0,0-2.484-3.846,4.709,4.709,0,0,0-2.1-.475,5.167,5.167,0,0,0-1.061.11l-.038.007c-.1.018-1.07.253-4.142,2.784-1.784,1.47-3.523,3.1-4.188,3.793l-.051.05c-3.626,3.424-7.094,7.132-10.008,10.308l-4.219,4.6,1.692-6.179c1.375-5.02,2.8-10.211,4.308-15.292.077-.268.257-.829.485-1.537.381-1.187,1.174-3.656,1.25-4.13l.008-.049a2.986,2.986,0,0,0-.433-2.337l-.035-.055A4.859,4.859,0,0,0,27.58,3.2c-.136,0-.271.005-.4.015a4.682,4.682,0,0,0-2.73,1.207l-.031.028c-.026.023-.652.618-1.653,3.985A46.562,46.562,0,0,0,21.6,13.263l-.015.079c-1.056,4.868-1.73,9.773-2.382,14.788l-.929,7.136-2.02-6.907c-1.644-5.623-3.247-11.134-4.775-16.722-.093-.327-.277-1.05-.509-1.963-.409-1.606-1.171-4.6-1.393-5.15l-.015-.039a4.553,4.553,0,0,0-1.922-2.5l-.055-.034a3.034,3.034,0,0,0-1.651-.443,4.412,4.412,0,0,0-2.8,1.048A5.2,5.2,0,0,0,1.541,5.522l-.007.035c-.038.184-.17,1.313.968,5.479.669,2.448,1.508,4.927,1.89,5.906L4.415,17c2.19,6.425,4.87,12.805,7.463,18.975.924,2.2,1.88,4.474,2.8,6.719l.158.385-.062.412c-.482,3.209-.785,6.532-1.078,9.746C13.5,55.348,13.3,57.524,13.057,59.661Z" transform="translate(66.36 128.996)" fill="#e7e7e7"/><path d="M42.3,63.735a6.229,6.229,0,0,1-1.38-.149A3.415,3.415,0,0,1,38.416,62l-.023-.04-.02-.041c-.951-1.93-1.978-3.886-2.97-5.778C33.947,53.368,32.444,50.5,31.11,47.6c-1.88-1.3-3.8-2.615-5.662-3.885-5.554-3.79-11.3-7.708-16.693-11.964-.862-.624-2.954-2.268-5.016-4.112C.253,24.521-.551,23.169-.845,22.425a8.146,8.146,0,0,1-.383-5.341l0-.016A6.953,6.953,0,0,1,5.049,11.98a7.542,7.542,0,0,1,4.868,1.643c.617.443,2.221,1.918,4.251,3.8.656.607,1.222,1.132,1.445,1.327l.012.01c2.546,2.276,5.144,4.555,7.711,6.787-1.109-2.462-2.162-4.942-3.122-7.484a49.826,49.826,0,0,1-1.768-5.033c-1.1-3.767-.982-5.156-.788-5.869a7.659,7.659,0,0,1,2.71-4.131l.011-.009A8.615,8.615,0,0,1,25.5,1.261a6.127,6.127,0,0,1,2.612.548,5.991,5.991,0,0,1,3.192,3.317c.243.554.627,1.912,1.332,4.527.18.667.35,1.3.418,1.519l.005.018c.919,3.136,1.892,6.3,2.873,9.422.507-2.673,1.087-5.461,1.759-8.209.191-.965.766-3.341,1.534-5.759,1.312-4.132,2.2-5.327,2.757-5.858a7.9,7.9,0,0,1,4.645-2.256l.015,0c.253-.025.512-.038.769-.038A7.2,7.2,0,0,1,53.807,2.02a6.8,6.8,0,0,1,.629,4.849c-.137.707-.776,2.618-1.6,5.039-.257.758-.478,1.412-.556,1.665l0,.014c-1.775,5.6-3.473,11.336-5.115,16.883-1.093,3.693-2.223,7.51-3.368,11.261.811,2.648,1.665,5.327,2.492,7.921.819,2.567,1.665,5.222,2.47,7.847l0,.006a3.511,3.511,0,0,1-.135,2.977,6.085,6.085,0,0,1-2.705,2.392A8.458,8.458,0,0,1,42.3,63.735ZM41.03,60.476a.916.916,0,0,0,.382.128l.073.01.072.017a3.169,3.169,0,0,0,.74.081A4.678,4.678,0,0,0,45.98,59.02l.031-.055a2.958,2.958,0,0,0-.14-.581c-.8-2.61-1.644-5.257-2.46-7.816-.877-2.749-1.783-5.591-2.64-8.4l-.138-.453.145-.451c.042-.129.074-.233.1-.326v0c1.15-3.765,2.287-7.606,3.386-11.32,1.645-5.558,3.346-11.3,5.129-16.931.092-.3.308-.936.58-1.742C50.43,9.6,51.372,6.82,51.468,6.3l.009-.045a3.821,3.821,0,0,0-.322-2.78l-.03-.056a4.248,4.248,0,0,0-3.714-1.9c-.155,0-.31.008-.462.022A4.936,4.936,0,0,0,44.1,2.944l-.026.025c-.074.07-.761.795-1.965,4.588-.7,2.2-1.272,4.52-1.455,5.459l-.016.071c-1.186,4.842-2.083,9.84-2.8,14.091l-1.044,6.158-2.046-6.461c-1.535-4.847-3.123-9.859-4.578-14.828-.084-.275-.243-.864-.443-1.607-.321-1.189-.988-3.662-1.18-4.1L28.52,6.3A2.991,2.991,0,0,0,26.886,4.57l-.057-.026A3.093,3.093,0,0,0,25.5,4.283a5.613,5.613,0,0,0-3.282,1.133,4.687,4.687,0,0,0-1.636,2.5l-.01.039c-.009.034-.211.873.777,4.244A46.585,46.585,0,0,0,23,16.882l.031.075c1.758,4.659,3.857,9.144,6.033,13.71l3.1,6.495-5.447-4.7C22.472,28.8,17.972,24.91,13.616,21.016c-.257-.225-.807-.734-1.5-1.378-1.214-1.124-3.474-3.216-3.961-3.561l-.034-.025A4.542,4.542,0,0,0,5.149,15H5.085A3.988,3.988,0,0,0,1.674,17.93a5.2,5.2,0,0,0,.278,3.349l.013.034c.068.175.57,1.2,3.789,4.074C7.645,27.079,9.7,28.7,10.549,29.319l.053.04c5.322,4.2,11.03,8.093,16.55,11.86,1.978,1.35,4.024,2.746,6.024,4.136l.342.238.172.379c1.34,2.955,2.89,5.91,4.389,8.767C39.061,56.612,40.077,58.547,41.03,60.476Z" transform="translate(1.517 66.345)" fill="#e7e7e7"/><path d="M16.807,64.386h0a8.03,8.03,0,0,1-5.535-2.178,3.408,3.408,0,0,1-1.238-2.691l0-.044.005-.044c.25-2.137.45-4.336.645-6.462.285-3.121.579-6.343,1.038-9.506-.867-2.108-1.764-4.243-2.633-6.311C6.483,30.942,3.786,24.523,1.565,18.01,1.18,17.018.316,14.5-.413,11.833-1.646,7.319-1.587,5.748-1.429,4.963A8.147,8.147,0,0,1,1.151.273l.012-.01A7.478,7.478,0,0,1,5.931-1.511,6.048,6.048,0,0,1,9.194-.6a7.545,7.545,0,0,1,3.194,4.025c.277.708.824,2.821,1.507,5.506.22.862.409,1.606.49,1.89l0,.014c.9,3.308,1.836,6.59,2.787,9.887.407-2.669.869-5.323,1.444-7.98a49.808,49.808,0,0,1,1.25-5.186c1.12-3.76,1.976-4.862,2.527-5.355a7.655,7.655,0,0,1,4.52-2h.014c.214-.017.432-.025.649-.025a7.743,7.743,0,0,1,6.5,3.211,5.984,5.984,0,0,1,.879,4.519c-.1.6-.518,1.965-1.356,4.575-.213.663-.4,1.236-.46,1.455l0,.014c-.932,3.133-1.831,6.314-2.707,9.473,1.875-1.966,3.875-3.99,5.935-5.937.685-.707,2.46-2.39,4.418-4,3.344-2.755,4.74-3.276,5.5-3.42a8.2,8.2,0,0,1,1.668-.171,7.731,7.731,0,0,1,3.46.8l.012.006a7.343,7.343,0,0,1,4.116,6.824,6.8,6.8,0,0,1-2.106,4.413c-.5.517-2.071,1.774-4.072,3.36-.629.5-1.172.929-1.375,1.1l-.011.01c-4.54,3.743-9.087,7.64-13.484,11.41-2.918,2.5-5.935,5.088-8.928,7.61-.748,2.633-1.477,5.313-2.184,7.909-.716,2.632-1.456,5.353-2.216,8.025v0a3.513,3.513,0,0,1-1.731,2.427A5.546,5.546,0,0,1,16.807,64.386Zm-3.751-4.726a.926.926,0,0,0,.251.314l.056.048.051.053a5.074,5.074,0,0,0,3.393,1.288h0a2.582,2.582,0,0,0,1.2-.238l.054-.029a2.953,2.953,0,0,0,.2-.565c.756-2.657,1.494-5.369,2.207-7.993.749-2.753,1.523-5.6,2.321-8.393l.131-.458.369-.3c.085-.069.168-.139.251-.208l.015-.012c3-2.529,6.038-5.131,8.973-7.648,4.406-3.777,8.962-7.683,13.522-11.442.239-.2.769-.62,1.437-1.151,1.1-.876,3.4-2.7,3.77-3.086l.032-.032A3.818,3.818,0,0,0,52.526,17.3l.005-.064a4.359,4.359,0,0,0-2.484-3.846,4.7,4.7,0,0,0-2.1-.475,5.175,5.175,0,0,0-1.063.11l-.038.007c-.1.018-1.07.253-4.142,2.784-1.784,1.47-3.523,3.1-4.188,3.793l-.051.05c-3.637,3.434-7.1,7.138-10.008,10.308l-4.22,4.6,1.693-6.182c1.375-5.019,2.8-10.21,4.307-15.291.077-.268.258-.829.485-1.538.381-1.187,1.174-3.656,1.25-4.13l.008-.049a2.986,2.986,0,0,0-.433-2.337l-.035-.055A4.86,4.86,0,0,0,27.58,3.2c-.136,0-.272.005-.4.016a4.682,4.682,0,0,0-2.729,1.207l-.031.028c-.026.023-.652.618-1.653,3.985A46.559,46.559,0,0,0,21.6,13.263l-.015.079c-1.056,4.868-1.73,9.773-2.382,14.788l-.929,7.136-2.02-6.907c-1.644-5.623-3.247-11.134-4.775-16.722-.093-.327-.277-1.05-.509-1.963-.409-1.606-1.171-4.6-1.393-5.15l-.015-.039a4.553,4.553,0,0,0-1.922-2.5l-.055-.034a3.034,3.034,0,0,0-1.651-.443,4.412,4.412,0,0,0-2.8,1.048A5.2,5.2,0,0,0,1.541,5.522l-.007.035c-.038.184-.17,1.313.968,5.479.669,2.448,1.508,4.927,1.89,5.906L4.415,17c2.19,6.425,4.87,12.805,7.463,18.975.924,2.2,1.88,4.474,2.8,6.719l.158.385-.062.412c-.482,3.209-.785,6.532-1.078,9.746C13.5,55.348,13.3,57.524,13.057,59.661Z" transform="translate(66.36 1.517)" fill="#e7e7e7"/></g></g><g transform="translate(1285 4026.069) rotate(90)" opacity="0.25"><g clip-path="url(#a)"><path d="M42.3,63.735h0a6.23,6.23,0,0,1-1.38-.149A3.415,3.415,0,0,1,38.416,62l-.023-.04-.02-.041c-.951-1.93-1.978-3.886-2.97-5.778C33.947,53.369,32.444,50.5,31.11,47.6c-1.88-1.3-3.8-2.615-5.662-3.885-5.554-3.79-11.3-7.708-16.694-11.964-.862-.624-2.954-2.268-5.016-4.111C.253,24.521-.552,23.169-.845,22.425a8.147,8.147,0,0,1-.382-5.34l0-.016A6.953,6.953,0,0,1,5.049,11.98a7.543,7.543,0,0,1,4.868,1.643c.617.444,2.221,1.919,4.25,3.8.656.607,1.222,1.132,1.445,1.327l.011.01c2.546,2.276,5.144,4.555,7.711,6.787-1.109-2.462-2.162-4.942-3.122-7.484a49.836,49.836,0,0,1-1.768-5.033c-1.1-3.767-.982-5.156-.788-5.869a7.659,7.659,0,0,1,2.71-4.131l.011-.009A8.614,8.614,0,0,1,25.5,1.261a6.127,6.127,0,0,1,2.612.548,5.991,5.991,0,0,1,3.192,3.317c.243.554.627,1.912,1.333,4.527.18.667.35,1.3.418,1.518l.005.018c.919,3.136,1.892,6.3,2.873,9.422.507-2.673,1.087-5.461,1.759-8.209.191-.965.766-3.341,1.534-5.759,1.312-4.132,2.2-5.327,2.757-5.858a7.9,7.9,0,0,1,4.645-2.256l.015,0c.253-.025.512-.038.769-.038A7.2,7.2,0,0,1,53.807,2.02a6.8,6.8,0,0,1,.629,4.849c-.137.707-.776,2.618-1.6,5.038-.257.758-.478,1.413-.556,1.665l0,.014c-1.775,5.6-3.473,11.337-5.115,16.883-1.093,3.693-2.223,7.51-3.368,11.26.811,2.648,1.665,5.326,2.492,7.92.819,2.568,1.665,5.223,2.47,7.847l0,.006a3.511,3.511,0,0,1-.135,2.977,6.085,6.085,0,0,1-2.705,2.392A8.458,8.458,0,0,1,42.3,63.735ZM41.03,60.476a.916.916,0,0,0,.382.128l.073.01.072.017a3.169,3.169,0,0,0,.74.081A4.678,4.678,0,0,0,45.98,59.02l.031-.055a2.958,2.958,0,0,0-.14-.581c-.8-2.61-1.644-5.257-2.461-7.817-.876-2.749-1.783-5.591-2.64-8.4l-.138-.453.145-.451c.042-.129.074-.233.1-.326v0c1.15-3.765,2.286-7.605,3.386-11.32,1.645-5.558,3.346-11.305,5.13-16.932.092-.3.308-.936.581-1.742C50.43,9.6,51.372,6.82,51.468,6.3l.009-.045a3.821,3.821,0,0,0-.322-2.78l-.03-.056a4.248,4.248,0,0,0-3.714-1.9c-.154,0-.31.008-.461.022A4.935,4.935,0,0,0,44.1,2.944l-.026.025c-.074.07-.761.795-1.965,4.588-.7,2.2-1.272,4.52-1.455,5.459l-.016.071c-1.186,4.842-2.083,9.84-2.8,14.091l-1.044,6.158-2.047-6.462c-1.535-4.847-3.122-9.858-4.578-14.827-.084-.275-.243-.864-.443-1.606-.321-1.189-.988-3.662-1.18-4.1L28.52,6.3A2.991,2.991,0,0,0,26.886,4.57l-.057-.026A3.093,3.093,0,0,0,25.5,4.283a5.613,5.613,0,0,0-3.282,1.133,4.687,4.687,0,0,0-1.635,2.5l-.01.039c-.009.034-.211.873.777,4.244A46.585,46.585,0,0,0,23,16.882l.03.075c1.758,4.659,3.857,9.144,6.033,13.71l3.1,6.495-5.447-4.7c-4.237-3.657-8.737-7.552-13.093-11.446-.257-.226-.807-.734-1.5-1.377-1.214-1.124-3.474-3.217-3.962-3.561l-.034-.025A4.542,4.542,0,0,0,5.149,15H5.085A3.988,3.988,0,0,0,1.674,17.93a5.2,5.2,0,0,0,.278,3.349l.013.034c.068.175.57,1.2,3.789,4.075C7.645,27.079,9.7,28.7,10.549,29.319l.053.04c5.322,4.2,11.03,8.093,16.55,11.86,1.978,1.35,4.024,2.746,6.024,4.136l.342.238.172.379c1.34,2.955,2.89,5.91,4.389,8.767C39.061,56.612,40.077,58.548,41.03,60.476Z" transform="translate(1.517 576.26)" fill="#e7e7e7"/><path d="M16.807,64.387a8.03,8.03,0,0,1-5.535-2.178,3.408,3.408,0,0,1-1.239-2.692l0-.044.005-.044c.25-2.137.45-4.336.645-6.462.285-3.121.579-6.343,1.038-9.506-.867-2.108-1.763-4.243-2.632-6.311C6.483,30.942,3.786,24.523,1.565,18.01,1.18,17.018.316,14.5-.413,11.833-1.646,7.319-1.587,5.748-1.429,4.963A8.147,8.147,0,0,1,1.151.273l.012-.01A7.478,7.478,0,0,1,5.931-1.511,6.048,6.048,0,0,1,9.194-.6a7.545,7.545,0,0,1,3.194,4.024c.277.708.823,2.821,1.508,5.506.22.862.409,1.606.49,1.891l0,.014c.9,3.307,1.836,6.59,2.787,9.887.407-2.669.869-5.323,1.444-7.98a49.807,49.807,0,0,1,1.25-5.186C20.992,3.793,21.848,2.692,22.4,2.2a7.655,7.655,0,0,1,4.519-2h.014c.214-.017.432-.025.649-.025a7.744,7.744,0,0,1,6.5,3.211,5.984,5.984,0,0,1,.878,4.519c-.1.6-.518,1.966-1.356,4.576-.213.663-.4,1.235-.46,1.454l0,.014c-.932,3.133-1.831,6.314-2.707,9.474,1.878-1.969,3.879-3.995,5.936-5.938.685-.707,2.46-2.39,4.418-4,3.345-2.755,4.74-3.276,5.5-3.42a8.2,8.2,0,0,1,1.665-.171,7.742,7.742,0,0,1,3.461.8l.013.006a7.344,7.344,0,0,1,4.116,6.824,6.8,6.8,0,0,1-2.106,4.413c-.5.518-2.072,1.774-4.072,3.36-.629.5-1.172.929-1.375,1.1l-.011.01c-4.54,3.743-9.087,7.641-13.485,11.41-2.918,2.5-5.935,5.087-8.927,7.609-.748,2.633-1.477,5.313-2.184,7.91-.716,2.632-1.456,5.353-2.216,8.025v0a3.514,3.514,0,0,1-1.731,2.427A5.543,5.543,0,0,1,16.807,64.387Zm-3.75-4.726a.926.926,0,0,0,.251.314l.056.048.051.053a5.074,5.074,0,0,0,3.393,1.289,2.58,2.58,0,0,0,1.2-.238l.055-.029a2.952,2.952,0,0,0,.2-.565c.756-2.657,1.494-5.369,2.207-7.993.749-2.753,1.523-5.6,2.321-8.394l.131-.458.369-.3c.083-.068.165-.136.246-.2l.02-.017c3-2.529,6.037-5.131,8.972-7.647,4.406-3.777,8.963-7.683,13.523-11.443.239-.2.768-.62,1.437-1.15,1.1-.876,3.4-2.7,3.771-3.086l.032-.032A3.818,3.818,0,0,0,52.526,17.3l.005-.064a4.359,4.359,0,0,0-2.483-3.846,4.709,4.709,0,0,0-2.1-.475,5.167,5.167,0,0,0-1.061.11l-.038.007c-.1.018-1.07.253-4.142,2.784-1.784,1.47-3.523,3.1-4.188,3.793l-.051.05c-3.625,3.423-7.094,7.132-10.008,10.308l-4.219,4.6,1.694-6.183c1.375-5.018,2.8-10.208,4.307-15.288.077-.268.257-.829.485-1.537.381-1.187,1.174-3.657,1.25-4.131l.008-.049a2.986,2.986,0,0,0-.433-2.337l-.035-.055A4.86,4.86,0,0,0,27.58,3.2c-.136,0-.272.005-.4.016a4.683,4.683,0,0,0-2.73,1.207l-.031.028c-.026.023-.652.618-1.653,3.985A46.559,46.559,0,0,0,21.6,13.263l-.015.079c-1.056,4.868-1.73,9.773-2.382,14.788l-.929,7.136-2.02-6.907c-1.644-5.623-3.247-11.133-4.775-16.722-.093-.327-.277-1.05-.509-1.963C10.558,8.068,9.8,5.079,9.574,4.523l-.015-.039a4.553,4.553,0,0,0-1.922-2.5l-.055-.034a3.034,3.034,0,0,0-1.651-.443,4.411,4.411,0,0,0-2.8,1.048A5.2,5.2,0,0,0,1.541,5.522l-.007.035c-.038.184-.17,1.313.968,5.479.669,2.448,1.508,4.927,1.89,5.906L4.415,17c2.19,6.425,4.87,12.805,7.463,18.975.924,2.2,1.88,4.474,2.8,6.719l.158.385-.062.412c-.482,3.209-.785,6.532-1.078,9.746C13.5,55.348,13.3,57.524,13.057,59.661Z" transform="translate(66.36 511.432)" fill="#e7e7e7"/><path d="M42.3,63.735a6.228,6.228,0,0,1-1.38-.149A3.415,3.415,0,0,1,38.416,62l-.023-.04-.02-.041c-.951-1.93-1.978-3.886-2.97-5.778C33.946,53.368,32.444,50.5,31.11,47.6c-1.88-1.3-3.8-2.615-5.661-3.885-5.554-3.79-11.3-7.708-16.694-11.964-.862-.624-2.954-2.268-5.016-4.112C.252,24.52-.552,23.169-.845,22.424a8.146,8.146,0,0,1-.382-5.34l0-.016A6.952,6.952,0,0,1,5.049,11.98a7.543,7.543,0,0,1,4.868,1.643c.617.444,2.221,1.919,4.25,3.8.656.607,1.222,1.132,1.445,1.327l.012.01c2.546,2.276,5.144,4.555,7.711,6.787-1.109-2.462-2.162-4.942-3.122-7.484a49.828,49.828,0,0,1-1.768-5.033c-1.1-3.766-.982-5.156-.788-5.869a7.659,7.659,0,0,1,2.71-4.131l.011-.009A8.615,8.615,0,0,1,25.5,1.261a6.127,6.127,0,0,1,2.612.548,5.991,5.991,0,0,1,3.192,3.317c.243.554.627,1.912,1.333,4.527.18.667.35,1.3.418,1.519l.005.018c.919,3.136,1.892,6.3,2.873,9.422.507-2.673,1.087-5.461,1.759-8.209.191-.965.766-3.341,1.534-5.759,1.312-4.132,2.2-5.327,2.757-5.858a7.9,7.9,0,0,1,4.645-2.256l.015,0c.253-.025.512-.038.769-.038A7.2,7.2,0,0,1,53.807,2.02a6.8,6.8,0,0,1,.629,4.849c-.137.707-.776,2.618-1.6,5.039-.257.758-.478,1.412-.555,1.665l0,.014c-1.775,5.6-3.473,11.336-5.115,16.883-1.093,3.693-2.223,7.511-3.368,11.261.811,2.648,1.665,5.326,2.492,7.921.819,2.567,1.665,5.222,2.47,7.847l0,.006a3.511,3.511,0,0,1-.135,2.977,6.086,6.086,0,0,1-2.705,2.392A8.458,8.458,0,0,1,42.3,63.735ZM41.03,60.476a.916.916,0,0,0,.382.128l.073.01.072.017a3.168,3.168,0,0,0,.74.081A4.678,4.678,0,0,0,45.98,59.02l.031-.055a2.956,2.956,0,0,0-.14-.581c-.8-2.61-1.644-5.257-2.46-7.816-.876-2.749-1.783-5.591-2.64-8.4l-.138-.453.145-.451c.042-.129.074-.233.1-.326v0c1.15-3.765,2.287-7.606,3.386-11.32,1.645-5.558,3.346-11.3,5.129-16.931.091-.3.308-.936.58-1.742C50.43,9.6,51.372,6.82,51.468,6.3l.009-.045a3.821,3.821,0,0,0-.322-2.78l-.03-.056a4.248,4.248,0,0,0-3.714-1.9c-.155,0-.31.008-.462.022A4.935,4.935,0,0,0,44.1,2.944l-.026.025c-.074.07-.761.795-1.965,4.588-.7,2.205-1.272,4.52-1.455,5.459l-.016.071c-1.186,4.842-2.083,9.84-2.8,14.091l-1.044,6.158-2.047-6.462c-1.535-4.846-3.122-9.858-4.578-14.827-.084-.275-.243-.864-.443-1.607-.321-1.189-.988-3.662-1.18-4.1L28.52,6.3A2.991,2.991,0,0,0,26.886,4.57l-.057-.026A3.093,3.093,0,0,0,25.5,4.283a5.613,5.613,0,0,0-3.282,1.133,4.687,4.687,0,0,0-1.635,2.5l-.01.039c-.009.034-.211.873.778,4.244A46.581,46.581,0,0,0,23,16.882l.031.075c1.758,4.659,3.857,9.144,6.033,13.71l3.1,6.495-5.447-4.7c-4.237-3.657-8.737-7.552-13.092-11.445-.257-.225-.807-.734-1.5-1.378-1.214-1.124-3.474-3.216-3.962-3.561l-.034-.025A4.542,4.542,0,0,0,5.149,15H5.085A3.988,3.988,0,0,0,1.674,17.93a5.2,5.2,0,0,0,.278,3.349l.013.034c.068.175.57,1.2,3.789,4.075C7.645,27.079,9.7,28.7,10.549,29.319l.053.04c5.322,4.2,11.03,8.093,16.55,11.86,1.978,1.35,4.024,2.746,6.023,4.136l.342.238.172.379c1.34,2.955,2.89,5.91,4.389,8.767C39.061,56.612,40.077,58.547,41.03,60.476Z" transform="translate(1.517 448.781)" fill="#e7e7e7"/><path d="M16.807,64.386h0a8.03,8.03,0,0,1-5.535-2.178,3.408,3.408,0,0,1-1.238-2.692l0-.044.005-.044c.25-2.137.451-4.336.645-6.462.285-3.121.579-6.343,1.038-9.506-.867-2.108-1.764-4.243-2.633-6.312C6.483,30.942,3.786,24.523,1.565,18.01,1.18,17.018.316,14.5-.413,11.833-1.646,7.319-1.587,5.748-1.429,4.963A8.147,8.147,0,0,1,1.151.273l.012-.01A7.478,7.478,0,0,1,5.931-1.511,6.048,6.048,0,0,1,9.194-.6a7.544,7.544,0,0,1,3.194,4.025c.277.708.824,2.821,1.508,5.506.22.862.409,1.606.49,1.89l0,.014c.9,3.307,1.836,6.59,2.787,9.887.407-2.669.869-5.323,1.444-7.98a49.809,49.809,0,0,1,1.25-5.186C20.992,3.793,21.848,2.692,22.4,2.2a7.655,7.655,0,0,1,4.519-2h.014c.214-.017.432-.025.649-.025a7.743,7.743,0,0,1,6.5,3.211,5.984,5.984,0,0,1,.878,4.519c-.1.6-.518,1.965-1.356,4.575-.213.663-.4,1.236-.46,1.455l0,.014c-.932,3.133-1.831,6.315-2.707,9.473,1.878-1.969,3.879-3.995,5.936-5.938.685-.707,2.46-2.39,4.418-4,3.344-2.755,4.74-3.276,5.5-3.42a8.2,8.2,0,0,1,1.666-.171,7.742,7.742,0,0,1,3.461.8l.013.006a7.342,7.342,0,0,1,4.116,6.823,6.8,6.8,0,0,1-2.106,4.414c-.5.517-2.071,1.774-4.071,3.359-.629.5-1.173.929-1.375,1.1l-.011.01c-4.54,3.743-9.087,7.641-13.485,11.411-2.918,2.5-5.934,5.087-8.926,7.609-.748,2.633-1.477,5.313-2.184,7.909-.716,2.632-1.457,5.353-2.216,8.025v0a3.513,3.513,0,0,1-1.731,2.427A5.545,5.545,0,0,1,16.807,64.386Zm-3.751-4.726a.926.926,0,0,0,.251.314l.056.048.051.053a5.074,5.074,0,0,0,3.393,1.288h0a2.583,2.583,0,0,0,1.2-.238l.054-.029a2.953,2.953,0,0,0,.2-.565c.756-2.657,1.494-5.37,2.208-7.993.749-2.753,1.523-5.6,2.321-8.393l.131-.458.369-.3c.083-.067.164-.136.245-.2l.022-.018c3-2.529,6.037-5.13,8.972-7.647,4.406-3.777,8.963-7.683,13.523-11.443.239-.2.769-.621,1.438-1.151,1.1-.876,3.4-2.7,3.77-3.085l.031-.032A3.819,3.819,0,0,0,52.526,17.3l.005-.065a4.358,4.358,0,0,0-2.484-3.845,4.709,4.709,0,0,0-2.1-.475,5.167,5.167,0,0,0-1.061.11l-.038.007c-.1.018-1.07.253-4.142,2.784-1.784,1.47-3.523,3.1-4.188,3.793l-.051.05c-3.626,3.423-7.094,7.132-10.008,10.308l-4.219,4.6,1.693-6.181c1.375-5.019,2.8-10.208,4.307-15.288.077-.268.258-.829.485-1.539.381-1.187,1.174-3.656,1.25-4.13l.008-.049a2.986,2.986,0,0,0-.433-2.337l-.035-.055A4.859,4.859,0,0,0,27.58,3.2c-.136,0-.271.005-.4.015a4.683,4.683,0,0,0-2.73,1.207l-.031.028c-.026.023-.652.618-1.653,3.985A46.56,46.56,0,0,0,21.6,13.263l-.015.079c-1.056,4.868-1.73,9.773-2.382,14.788l-.929,7.136-2.02-6.907C14.607,22.735,13,17.224,11.477,11.636c-.093-.327-.277-1.05-.509-1.963-.409-1.606-1.171-4.6-1.393-5.151l-.015-.039a4.553,4.553,0,0,0-1.922-2.5l-.055-.034a3.034,3.034,0,0,0-1.651-.443,4.412,4.412,0,0,0-2.8,1.048A5.2,5.2,0,0,0,1.541,5.522l-.007.035c-.038.184-.17,1.313.968,5.479.669,2.448,1.508,4.927,1.89,5.906L4.415,17c2.19,6.425,4.87,12.8,7.463,18.975.924,2.2,1.88,4.474,2.8,6.719l.158.385-.062.412c-.482,3.209-.785,6.532-1.078,9.746C13.5,55.348,13.3,57.524,13.057,59.661Z" transform="translate(66.36 383.953)" fill="#e7e7e7"/><path d="M42.3,63.734h0a6.23,6.23,0,0,1-1.38-.149A3.415,3.415,0,0,1,38.416,62l-.023-.04-.02-.041c-.951-1.93-1.978-3.886-2.97-5.778C33.946,53.368,32.444,50.5,31.11,47.6c-1.881-1.3-3.8-2.615-5.662-3.885-5.554-3.789-11.3-7.708-16.693-11.964-.862-.624-2.954-2.268-5.016-4.112C.253,24.521-.552,23.169-.845,22.424a8.147,8.147,0,0,1-.382-5.34l0-.016A6.953,6.953,0,0,1,5.049,11.98a7.543,7.543,0,0,1,4.868,1.643c.616.443,2.219,1.917,4.248,3.795.657.608,1.224,1.133,1.448,1.329l.012.01c2.546,2.276,5.144,4.555,7.71,6.786-1.108-2.46-2.161-4.939-3.122-7.484a49.831,49.831,0,0,1-1.768-5.033c-1.1-3.767-.982-5.157-.788-5.869a7.659,7.659,0,0,1,2.71-4.131l.011-.009A8.615,8.615,0,0,1,25.5,1.26a6.127,6.127,0,0,1,2.612.548,5.99,5.99,0,0,1,3.192,3.317c.243.554.627,1.912,1.332,4.526.18.667.35,1.3.418,1.519l.005.018c.919,3.136,1.892,6.3,2.873,9.422.507-2.673,1.087-5.461,1.759-8.209.191-.965.766-3.341,1.534-5.759,1.311-4.131,2.2-5.326,2.757-5.858a7.9,7.9,0,0,1,4.645-2.257l.016,0c.253-.025.51-.038.766-.038a7.2,7.2,0,0,1,6.4,3.53,6.8,6.8,0,0,1,.629,4.85c-.137.707-.776,2.619-1.6,5.039-.257.758-.478,1.412-.555,1.665l0,.014c-1.775,5.6-3.473,11.336-5.115,16.882-1.093,3.693-2.223,7.511-3.368,11.261.811,2.648,1.665,5.326,2.492,7.921.819,2.567,1.665,5.222,2.47,7.847l0,.006a3.511,3.511,0,0,1-.135,2.977,6.085,6.085,0,0,1-2.705,2.392A8.457,8.457,0,0,1,42.3,63.734ZM41.03,60.476a.916.916,0,0,0,.382.128l.073.01.072.017a3.17,3.17,0,0,0,.74.081h0A4.678,4.678,0,0,0,45.98,59.02l.031-.055a2.957,2.957,0,0,0-.14-.581c-.8-2.61-1.644-5.257-2.46-7.816-.876-2.749-1.783-5.591-2.64-8.4l-.138-.453.145-.451c.041-.129.074-.232.1-.326v0c1.15-3.765,2.287-7.606,3.386-11.321,1.645-5.558,3.346-11.3,5.129-16.93.091-.3.308-.936.58-1.742C50.43,9.6,51.372,6.82,51.468,6.3l.009-.045a3.82,3.82,0,0,0-.322-2.78l-.03-.056a4.25,4.25,0,0,0-3.716-1.9c-.154,0-.308.007-.459.022A4.935,4.935,0,0,0,44.1,2.944l-.026.025c-.074.07-.761.795-1.965,4.588-.7,2.2-1.272,4.52-1.455,5.459l-.016.071c-1.186,4.842-2.083,9.84-2.8,14.091l-1.044,6.158-2.046-6.461c-1.535-4.847-3.123-9.858-4.578-14.828-.084-.275-.243-.864-.443-1.607-.321-1.189-.988-3.662-1.18-4.1L28.52,6.3A2.991,2.991,0,0,0,26.886,4.57l-.057-.026A3.093,3.093,0,0,0,25.5,4.282a5.613,5.613,0,0,0-3.282,1.133,4.687,4.687,0,0,0-1.635,2.5l-.01.039c-.009.034-.211.873.777,4.244A46.582,46.582,0,0,0,23,16.882l.03.075c1.761,4.668,3.859,9.149,6.033,13.71l3.1,6.5-5.448-4.7c-4.236-3.656-8.735-7.55-13.092-11.445-.257-.225-.808-.735-1.5-1.38-1.214-1.123-3.472-3.214-3.96-3.56l-.033-.024A4.542,4.542,0,0,0,5.149,15H5.085A3.988,3.988,0,0,0,1.674,17.93a5.2,5.2,0,0,0,.278,3.349l.013.034c.068.175.57,1.2,3.789,4.075C7.645,27.079,9.7,28.7,10.549,29.319l.053.04c5.322,4.2,11.03,8.093,16.55,11.86,1.978,1.35,4.024,2.746,6.024,4.136l.342.238.172.379c1.34,2.955,2.89,5.91,4.389,8.767C39.061,56.611,40.077,58.547,41.03,60.476Z" transform="translate(1.517 321.303)" fill="#e7e7e7"/><path d="M16.807,64.387h0a8.03,8.03,0,0,1-5.535-2.178,3.408,3.408,0,0,1-1.238-2.692l0-.044.005-.044c.25-2.137.45-4.336.645-6.462.285-3.121.579-6.343,1.038-9.506-.867-2.108-1.764-4.243-2.633-6.312C6.483,30.942,3.786,24.523,1.565,18.01,1.18,17.018.316,14.5-.413,11.833-1.646,7.319-1.587,5.748-1.429,4.963A8.147,8.147,0,0,1,1.151.273l.012-.01A7.478,7.478,0,0,1,5.931-1.511,6.048,6.048,0,0,1,9.194-.6a7.544,7.544,0,0,1,3.194,4.024c.277.708.824,2.821,1.508,5.506.22.862.409,1.606.49,1.89l0,.014c.9,3.307,1.836,6.59,2.787,9.887.407-2.669.869-5.323,1.444-7.98a49.807,49.807,0,0,1,1.25-5.186C20.992,3.793,21.848,2.691,22.4,2.2a7.655,7.655,0,0,1,4.519-2h.014c.214-.017.432-.025.649-.025a7.743,7.743,0,0,1,6.5,3.211,5.985,5.985,0,0,1,.879,4.519c-.1.6-.518,1.965-1.356,4.574-.213.663-.4,1.236-.46,1.456l0,.014c-.932,3.133-1.831,6.314-2.707,9.473,1.878-1.969,3.879-3.995,5.936-5.938.685-.707,2.46-2.39,4.417-4,3.344-2.755,4.74-3.276,5.5-3.42a8.2,8.2,0,0,1,1.666-.171,7.742,7.742,0,0,1,3.461.8l.013.006a7.343,7.343,0,0,1,4.116,6.824,6.8,6.8,0,0,1-2.106,4.413c-.5.518-2.072,1.774-4.072,3.36-.629.5-1.172.929-1.375,1.1l-.011.01c-4.54,3.743-9.087,7.641-13.485,11.411-2.918,2.5-5.935,5.087-8.927,7.609-.748,2.633-1.477,5.313-2.184,7.909-.716,2.632-1.456,5.353-2.216,8.025v0a3.513,3.513,0,0,1-1.731,2.427A5.542,5.542,0,0,1,16.807,64.387Zm-3.75-4.726a.926.926,0,0,0,.251.314l.056.048.051.053a5.074,5.074,0,0,0,3.393,1.289,2.572,2.572,0,0,0,1.2-.238l.055-.029a2.953,2.953,0,0,0,.2-.565c.756-2.657,1.494-5.37,2.208-7.993.749-2.753,1.523-5.6,2.321-8.393l.131-.458.369-.3c.083-.068.165-.136.246-.2l.02-.017c3-2.529,6.037-5.131,8.972-7.647,4.406-3.777,8.963-7.683,13.523-11.443.239-.2.768-.62,1.437-1.15,1.1-.876,3.4-2.7,3.771-3.086l.032-.032A3.818,3.818,0,0,0,52.526,17.3l.005-.064a4.359,4.359,0,0,0-2.484-3.846,4.709,4.709,0,0,0-2.1-.475,5.167,5.167,0,0,0-1.061.11l-.038.007c-.1.018-1.07.253-4.142,2.784-1.784,1.47-3.523,3.1-4.188,3.793l-.051.05c-3.626,3.423-7.094,7.132-10.008,10.308l-4.219,4.6,1.693-6.18c1.375-5.019,2.8-10.209,4.307-15.29.077-.268.258-.83.485-1.539.381-1.187,1.174-3.656,1.25-4.13l.008-.049a2.986,2.986,0,0,0-.433-2.337l-.035-.055A4.859,4.859,0,0,0,27.58,3.2c-.136,0-.272.005-.4.016a4.682,4.682,0,0,0-2.729,1.207l-.031.028c-.026.023-.652.618-1.653,3.985A46.562,46.562,0,0,0,21.6,13.263l-.015.079c-1.056,4.868-1.73,9.773-2.382,14.788l-.929,7.136-2.02-6.907c-1.644-5.623-3.247-11.133-4.775-16.721-.093-.327-.277-1.05-.509-1.963-.409-1.606-1.171-4.6-1.393-5.151l-.015-.039a4.553,4.553,0,0,0-1.922-2.5l-.055-.034a3.034,3.034,0,0,0-1.651-.443,4.411,4.411,0,0,0-2.8,1.048A5.2,5.2,0,0,0,1.541,5.522l-.007.035c-.038.184-.17,1.313.968,5.479.669,2.448,1.508,4.927,1.89,5.906L4.415,17c2.19,6.425,4.87,12.8,7.462,18.975.924,2.2,1.88,4.475,2.8,6.719l.158.385-.062.412c-.482,3.209-.785,6.532-1.078,9.746C13.5,55.348,13.3,57.524,13.057,59.661Z" transform="translate(66.36 256.475)" fill="#e7e7e7"/><path d="M42.3,63.734h0a6.228,6.228,0,0,1-1.38-.149A3.415,3.415,0,0,1,38.416,62l-.023-.04-.02-.041c-.951-1.93-1.978-3.886-2.97-5.778C33.946,53.368,32.444,50.5,31.11,47.6c-1.88-1.3-3.8-2.615-5.661-3.885-5.554-3.79-11.3-7.708-16.693-11.964-.862-.624-2.955-2.268-5.016-4.112C.253,24.521-.551,23.169-.845,22.424a8.146,8.146,0,0,1-.383-5.341l0-.016A6.953,6.953,0,0,1,5.049,11.98a7.543,7.543,0,0,1,4.868,1.643c.616.443,2.219,1.917,4.248,3.795.657.608,1.225,1.134,1.448,1.329l.012.01c2.546,2.276,5.144,4.555,7.71,6.786-1.108-2.46-2.161-4.939-3.122-7.484a49.826,49.826,0,0,1-1.768-5.033c-1.1-3.767-.982-5.156-.788-5.869a7.659,7.659,0,0,1,2.71-4.131l.011-.009A8.615,8.615,0,0,1,25.5,1.26a6.127,6.127,0,0,1,2.612.548,5.991,5.991,0,0,1,3.192,3.317c.243.554.627,1.912,1.332,4.527.18.667.35,1.3.418,1.519l.005.018c.919,3.136,1.892,6.3,2.873,9.422.507-2.673,1.087-5.461,1.759-8.209.191-.965.766-3.341,1.534-5.759,1.312-4.132,2.2-5.327,2.757-5.858a7.9,7.9,0,0,1,4.645-2.256l.016,0c.253-.025.51-.038.766-.038a7.2,7.2,0,0,1,6.4,3.531,6.8,6.8,0,0,1,.629,4.85c-.137.707-.776,2.619-1.6,5.039-.257.758-.478,1.412-.555,1.665l0,.014c-1.775,5.6-3.473,11.336-5.115,16.883-1.093,3.693-2.223,7.511-3.368,11.261.811,2.648,1.665,5.327,2.493,7.921.819,2.567,1.665,5.222,2.47,7.846l0,.006a3.511,3.511,0,0,1-.135,2.977,6.085,6.085,0,0,1-2.705,2.392A8.458,8.458,0,0,1,42.3,63.734ZM41.03,60.476a.916.916,0,0,0,.382.128l.073.01.072.017a3.168,3.168,0,0,0,.74.081A4.678,4.678,0,0,0,45.98,59.02l.031-.055a2.958,2.958,0,0,0-.14-.581c-.8-2.61-1.644-5.256-2.46-7.816-.877-2.749-1.783-5.592-2.64-8.4l-.138-.453.145-.451c.042-.129.074-.232.1-.326v0c1.15-3.765,2.287-7.606,3.386-11.32,1.645-5.558,3.346-11.3,5.129-16.931.092-.3.308-.936.58-1.742C50.43,9.6,51.372,6.82,51.468,6.3l.009-.045a3.819,3.819,0,0,0-.322-2.78l-.03-.056a4.25,4.25,0,0,0-3.716-1.9c-.154,0-.308.007-.459.022A4.935,4.935,0,0,0,44.1,2.944l-.026.025c-.074.07-.761.795-1.965,4.588-.7,2.2-1.272,4.52-1.455,5.459l-.016.071c-1.186,4.842-2.083,9.84-2.8,14.091l-1.044,6.158-2.046-6.461c-1.535-4.847-3.123-9.859-4.578-14.828-.084-.275-.243-.864-.443-1.606-.321-1.189-.988-3.662-1.18-4.1L28.52,6.3A2.991,2.991,0,0,0,26.886,4.57l-.057-.026A3.093,3.093,0,0,0,25.5,4.282a5.613,5.613,0,0,0-3.282,1.133,4.687,4.687,0,0,0-1.636,2.5l-.01.039c-.009.034-.211.873.777,4.244A46.585,46.585,0,0,0,23,16.882l.031.075c1.761,4.668,3.858,9.149,6.033,13.71l3.1,6.5-5.448-4.7c-4.236-3.656-8.737-7.552-13.093-11.446-.258-.226-.808-.735-1.5-1.379-1.214-1.123-3.472-3.214-3.96-3.56l-.033-.024A4.542,4.542,0,0,0,5.149,15H5.085A3.988,3.988,0,0,0,1.674,17.93a5.2,5.2,0,0,0,.278,3.349l.013.034c.068.175.57,1.2,3.789,4.074C7.645,27.079,9.7,28.7,10.549,29.319l.053.04c5.322,4.2,11.03,8.093,16.55,11.86,1.978,1.35,4.024,2.746,6.023,4.136l.342.238.172.379c1.34,2.955,2.89,5.91,4.389,8.767C39.061,56.611,40.077,58.547,41.03,60.476Z" transform="translate(1.517 193.824)" fill="#e7e7e7"/><path d="M16.807,64.387h0a8.029,8.029,0,0,1-5.535-2.178,3.408,3.408,0,0,1-1.238-2.691l0-.044.005-.044c.25-2.137.45-4.336.645-6.462.285-3.121.579-6.343,1.038-9.506-.867-2.108-1.764-4.243-2.633-6.311C6.483,30.942,3.786,24.523,1.565,18.01,1.18,17.018.316,14.5-.413,11.833-1.646,7.319-1.587,5.748-1.429,4.963A8.147,8.147,0,0,1,1.151.273l.012-.01A7.478,7.478,0,0,1,5.931-1.511,6.049,6.049,0,0,1,9.194-.6a7.545,7.545,0,0,1,3.194,4.025c.277.708.823,2.821,1.507,5.505.22.862.409,1.606.49,1.89l0,.014c.9,3.307,1.836,6.59,2.787,9.887.407-2.669.869-5.323,1.444-7.98a49.807,49.807,0,0,1,1.25-5.186C20.992,3.792,21.848,2.691,22.4,2.2a7.655,7.655,0,0,1,4.519-2h.014c.214-.017.432-.025.649-.025a7.743,7.743,0,0,1,6.5,3.211,5.984,5.984,0,0,1,.878,4.519c-.1.6-.518,1.966-1.356,4.575-.213.663-.4,1.236-.46,1.455l0,.014c-.932,3.133-1.831,6.314-2.707,9.473,1.878-1.969,3.879-3.995,5.936-5.938.685-.707,2.46-2.39,4.417-4,3.344-2.755,4.74-3.276,5.5-3.42a8.2,8.2,0,0,1,1.666-.171,7.742,7.742,0,0,1,3.461.8l.013.006a7.343,7.343,0,0,1,4.116,6.824,6.8,6.8,0,0,1-2.106,4.413c-.5.517-2.071,1.774-4.072,3.36-.629.5-1.172.929-1.375,1.1l-.011.01c-4.54,3.743-9.087,7.641-13.484,11.41-2.918,2.5-5.935,5.087-8.927,7.609-.748,2.633-1.477,5.313-2.184,7.91-.716,2.632-1.456,5.353-2.216,8.025v0a3.514,3.514,0,0,1-1.731,2.427A5.543,5.543,0,0,1,16.807,64.387Zm-3.75-4.726a.926.926,0,0,0,.251.314l.056.048.051.053a5.074,5.074,0,0,0,3.393,1.289h0a2.58,2.58,0,0,0,1.2-.238l.055-.029a2.954,2.954,0,0,0,.2-.565c.756-2.657,1.494-5.369,2.207-7.993.749-2.753,1.523-5.6,2.321-8.394l.131-.458.369-.3c.084-.069.167-.138.249-.207l.017-.014c3-2.529,6.037-5.131,8.972-7.647,4.406-3.777,8.963-7.683,13.523-11.443.239-.2.769-.62,1.437-1.15,1.1-.876,3.4-2.7,3.77-3.086l.032-.032A3.818,3.818,0,0,0,52.526,17.3l.005-.064a4.359,4.359,0,0,0-2.484-3.846,4.709,4.709,0,0,0-2.1-.475,5.167,5.167,0,0,0-1.061.11l-.038.007c-.1.018-1.07.253-4.142,2.784-1.784,1.47-3.523,3.1-4.188,3.793l-.051.05c-3.626,3.424-7.094,7.132-10.008,10.308l-4.219,4.6,1.692-6.179c1.375-5.02,2.8-10.211,4.308-15.292.077-.268.257-.829.485-1.537.381-1.187,1.174-3.656,1.25-4.13l.008-.049a2.986,2.986,0,0,0-.433-2.337l-.035-.055A4.859,4.859,0,0,0,27.58,3.2c-.136,0-.271.005-.4.015a4.682,4.682,0,0,0-2.73,1.207l-.031.028c-.026.023-.652.618-1.653,3.985A46.562,46.562,0,0,0,21.6,13.263l-.015.079c-1.056,4.868-1.73,9.773-2.382,14.788l-.929,7.136-2.02-6.907c-1.644-5.623-3.247-11.134-4.775-16.722-.093-.327-.277-1.05-.509-1.963-.409-1.606-1.171-4.6-1.393-5.15l-.015-.039a4.553,4.553,0,0,0-1.922-2.5l-.055-.034a3.034,3.034,0,0,0-1.651-.443,4.412,4.412,0,0,0-2.8,1.048A5.2,5.2,0,0,0,1.541,5.522l-.007.035c-.038.184-.17,1.313.968,5.479.669,2.448,1.508,4.927,1.89,5.906L4.415,17c2.19,6.425,4.87,12.805,7.463,18.975.924,2.2,1.88,4.474,2.8,6.719l.158.385-.062.412c-.482,3.209-.785,6.532-1.078,9.746C13.5,55.348,13.3,57.524,13.057,59.661Z" transform="translate(66.36 128.996)" fill="#e7e7e7"/><path d="M42.3,63.735a6.229,6.229,0,0,1-1.38-.149A3.415,3.415,0,0,1,38.416,62l-.023-.04-.02-.041c-.951-1.93-1.978-3.886-2.97-5.778C33.947,53.368,32.444,50.5,31.11,47.6c-1.88-1.3-3.8-2.615-5.662-3.885-5.554-3.79-11.3-7.708-16.693-11.964-.862-.624-2.954-2.268-5.016-4.112C.253,24.521-.551,23.169-.845,22.425a8.146,8.146,0,0,1-.383-5.341l0-.016A6.953,6.953,0,0,1,5.049,11.98a7.542,7.542,0,0,1,4.868,1.643c.617.443,2.221,1.918,4.251,3.8.656.607,1.222,1.132,1.445,1.327l.012.01c2.546,2.276,5.144,4.555,7.711,6.787-1.109-2.462-2.162-4.942-3.122-7.484a49.826,49.826,0,0,1-1.768-5.033c-1.1-3.767-.982-5.156-.788-5.869a7.659,7.659,0,0,1,2.71-4.131l.011-.009A8.615,8.615,0,0,1,25.5,1.261a6.127,6.127,0,0,1,2.612.548,5.991,5.991,0,0,1,3.192,3.317c.243.554.627,1.912,1.332,4.527.18.667.35,1.3.418,1.519l.005.018c.919,3.136,1.892,6.3,2.873,9.422.507-2.673,1.087-5.461,1.759-8.209.191-.965.766-3.341,1.534-5.759,1.312-4.132,2.2-5.327,2.757-5.858a7.9,7.9,0,0,1,4.645-2.256l.015,0c.253-.025.512-.038.769-.038A7.2,7.2,0,0,1,53.807,2.02a6.8,6.8,0,0,1,.629,4.849c-.137.707-.776,2.618-1.6,5.039-.257.758-.478,1.412-.556,1.665l0,.014c-1.775,5.6-3.473,11.336-5.115,16.883-1.093,3.693-2.223,7.51-3.368,11.261.811,2.648,1.665,5.327,2.492,7.921.819,2.567,1.665,5.222,2.47,7.847l0,.006a3.511,3.511,0,0,1-.135,2.977,6.085,6.085,0,0,1-2.705,2.392A8.458,8.458,0,0,1,42.3,63.735ZM41.03,60.476a.916.916,0,0,0,.382.128l.073.01.072.017a3.169,3.169,0,0,0,.74.081A4.678,4.678,0,0,0,45.98,59.02l.031-.055a2.958,2.958,0,0,0-.14-.581c-.8-2.61-1.644-5.257-2.46-7.816-.877-2.749-1.783-5.591-2.64-8.4l-.138-.453.145-.451c.042-.129.074-.233.1-.326v0c1.15-3.765,2.287-7.606,3.386-11.32,1.645-5.558,3.346-11.3,5.129-16.931.092-.3.308-.936.58-1.742C50.43,9.6,51.372,6.82,51.468,6.3l.009-.045a3.821,3.821,0,0,0-.322-2.78l-.03-.056a4.248,4.248,0,0,0-3.714-1.9c-.155,0-.31.008-.462.022A4.936,4.936,0,0,0,44.1,2.944l-.026.025c-.074.07-.761.795-1.965,4.588-.7,2.2-1.272,4.52-1.455,5.459l-.016.071c-1.186,4.842-2.083,9.84-2.8,14.091l-1.044,6.158-2.046-6.461c-1.535-4.847-3.123-9.859-4.578-14.828-.084-.275-.243-.864-.443-1.607-.321-1.189-.988-3.662-1.18-4.1L28.52,6.3A2.991,2.991,0,0,0,26.886,4.57l-.057-.026A3.093,3.093,0,0,0,25.5,4.283a5.613,5.613,0,0,0-3.282,1.133,4.687,4.687,0,0,0-1.636,2.5l-.01.039c-.009.034-.211.873.777,4.244A46.585,46.585,0,0,0,23,16.882l.031.075c1.758,4.659,3.857,9.144,6.033,13.71l3.1,6.495-5.447-4.7C22.472,28.8,17.972,24.91,13.616,21.016c-.257-.225-.807-.734-1.5-1.378-1.214-1.124-3.474-3.216-3.961-3.561l-.034-.025A4.542,4.542,0,0,0,5.149,15H5.085A3.988,3.988,0,0,0,1.674,17.93a5.2,5.2,0,0,0,.278,3.349l.013.034c.068.175.57,1.2,3.789,4.074C7.645,27.079,9.7,28.7,10.549,29.319l.053.04c5.322,4.2,11.03,8.093,16.55,11.86,1.978,1.35,4.024,2.746,6.024,4.136l.342.238.172.379c1.34,2.955,2.89,5.91,4.389,8.767C39.061,56.612,40.077,58.547,41.03,60.476Z" transform="translate(1.517 66.345)" fill="#e7e7e7"/><path d="M16.807,64.386h0a8.03,8.03,0,0,1-5.535-2.178,3.408,3.408,0,0,1-1.238-2.691l0-.044.005-.044c.25-2.137.45-4.336.645-6.462.285-3.121.579-6.343,1.038-9.506-.867-2.108-1.764-4.243-2.633-6.311C6.483,30.942,3.786,24.523,1.565,18.01,1.18,17.018.316,14.5-.413,11.833-1.646,7.319-1.587,5.748-1.429,4.963A8.147,8.147,0,0,1,1.151.273l.012-.01A7.478,7.478,0,0,1,5.931-1.511,6.048,6.048,0,0,1,9.194-.6a7.545,7.545,0,0,1,3.194,4.025c.277.708.824,2.821,1.507,5.506.22.862.409,1.606.49,1.89l0,.014c.9,3.308,1.836,6.59,2.787,9.887.407-2.669.869-5.323,1.444-7.98a49.808,49.808,0,0,1,1.25-5.186c1.12-3.76,1.976-4.862,2.527-5.355a7.655,7.655,0,0,1,4.52-2h.014c.214-.017.432-.025.649-.025a7.743,7.743,0,0,1,6.5,3.211,5.984,5.984,0,0,1,.879,4.519c-.1.6-.518,1.965-1.356,4.575-.213.663-.4,1.236-.46,1.455l0,.014c-.932,3.133-1.831,6.314-2.707,9.473,1.875-1.966,3.875-3.99,5.935-5.937.685-.707,2.46-2.39,4.418-4,3.344-2.755,4.74-3.276,5.5-3.42a8.2,8.2,0,0,1,1.668-.171,7.731,7.731,0,0,1,3.46.8l.012.006a7.343,7.343,0,0,1,4.116,6.824,6.8,6.8,0,0,1-2.106,4.413c-.5.517-2.071,1.774-4.072,3.36-.629.5-1.172.929-1.375,1.1l-.011.01c-4.54,3.743-9.087,7.64-13.484,11.41-2.918,2.5-5.935,5.088-8.928,7.61-.748,2.633-1.477,5.313-2.184,7.909-.716,2.632-1.456,5.353-2.216,8.025v0a3.513,3.513,0,0,1-1.731,2.427A5.546,5.546,0,0,1,16.807,64.386Zm-3.751-4.726a.926.926,0,0,0,.251.314l.056.048.051.053a5.074,5.074,0,0,0,3.393,1.288h0a2.582,2.582,0,0,0,1.2-.238l.054-.029a2.953,2.953,0,0,0,.2-.565c.756-2.657,1.494-5.369,2.207-7.993.749-2.753,1.523-5.6,2.321-8.393l.131-.458.369-.3c.085-.069.168-.139.251-.208l.015-.012c3-2.529,6.038-5.131,8.973-7.648,4.406-3.777,8.962-7.683,13.522-11.442.239-.2.769-.62,1.437-1.151,1.1-.876,3.4-2.7,3.77-3.086l.032-.032A3.818,3.818,0,0,0,52.526,17.3l.005-.064a4.359,4.359,0,0,0-2.484-3.846,4.7,4.7,0,0,0-2.1-.475,5.175,5.175,0,0,0-1.063.11l-.038.007c-.1.018-1.07.253-4.142,2.784-1.784,1.47-3.523,3.1-4.188,3.793l-.051.05c-3.637,3.434-7.1,7.138-10.008,10.308l-4.22,4.6,1.693-6.182c1.375-5.019,2.8-10.21,4.307-15.291.077-.268.258-.829.485-1.538.381-1.187,1.174-3.656,1.25-4.13l.008-.049a2.986,2.986,0,0,0-.433-2.337l-.035-.055A4.86,4.86,0,0,0,27.58,3.2c-.136,0-.272.005-.4.016a4.682,4.682,0,0,0-2.729,1.207l-.031.028c-.026.023-.652.618-1.653,3.985A46.559,46.559,0,0,0,21.6,13.263l-.015.079c-1.056,4.868-1.73,9.773-2.382,14.788l-.929,7.136-2.02-6.907c-1.644-5.623-3.247-11.134-4.775-16.722-.093-.327-.277-1.05-.509-1.963-.409-1.606-1.171-4.6-1.393-5.15l-.015-.039a4.553,4.553,0,0,0-1.922-2.5l-.055-.034a3.034,3.034,0,0,0-1.651-.443,4.412,4.412,0,0,0-2.8,1.048A5.2,5.2,0,0,0,1.541,5.522l-.007.035c-.038.184-.17,1.313.968,5.479.669,2.448,1.508,4.927,1.89,5.906L4.415,17c2.19,6.425,4.87,12.805,7.463,18.975.924,2.2,1.88,4.474,2.8,6.719l.158.385-.062.412c-.482,3.209-.785,6.532-1.078,9.746C13.5,55.348,13.3,57.524,13.057,59.661Z" transform="translate(66.36 1.517)" fill="#e7e7e7"/></g></g><g transform="translate(0 1439.542)"><g transform="translate(1920 2586.527) rotate(90)" opacity="0.25"><g clip-path="url(#a)"><path d="M42.3,63.735h0a6.23,6.23,0,0,1-1.38-.149A3.415,3.415,0,0,1,38.416,62l-.023-.04-.02-.041c-.951-1.93-1.978-3.886-2.97-5.778C33.947,53.369,32.444,50.5,31.11,47.6c-1.88-1.3-3.8-2.615-5.662-3.885-5.554-3.79-11.3-7.708-16.694-11.964-.862-.624-2.954-2.268-5.016-4.111C.253,24.521-.552,23.169-.845,22.425a8.147,8.147,0,0,1-.382-5.34l0-.016A6.953,6.953,0,0,1,5.049,11.98a7.543,7.543,0,0,1,4.868,1.643c.617.444,2.221,1.919,4.25,3.8.656.607,1.222,1.132,1.445,1.327l.011.01c2.546,2.276,5.144,4.555,7.711,6.787-1.109-2.462-2.162-4.942-3.122-7.484a49.836,49.836,0,0,1-1.768-5.033c-1.1-3.767-.982-5.156-.788-5.869a7.659,7.659,0,0,1,2.71-4.131l.011-.009A8.614,8.614,0,0,1,25.5,1.261a6.127,6.127,0,0,1,2.612.548,5.991,5.991,0,0,1,3.192,3.317c.243.554.627,1.912,1.333,4.527.18.667.35,1.3.418,1.518l.005.018c.919,3.136,1.892,6.3,2.873,9.422.507-2.673,1.087-5.461,1.759-8.209.191-.965.766-3.341,1.534-5.759,1.312-4.132,2.2-5.327,2.757-5.858a7.9,7.9,0,0,1,4.645-2.256l.015,0c.253-.025.512-.038.769-.038A7.2,7.2,0,0,1,53.807,2.02a6.8,6.8,0,0,1,.629,4.849c-.137.707-.776,2.618-1.6,5.038-.257.758-.478,1.413-.556,1.665l0,.014c-1.775,5.6-3.473,11.337-5.115,16.883-1.093,3.693-2.223,7.51-3.368,11.26.811,2.648,1.665,5.326,2.492,7.92.819,2.568,1.665,5.223,2.47,7.847l0,.006a3.511,3.511,0,0,1-.135,2.977,6.085,6.085,0,0,1-2.705,2.392A8.458,8.458,0,0,1,42.3,63.735ZM41.03,60.476a.916.916,0,0,0,.382.128l.073.01.072.017a3.169,3.169,0,0,0,.74.081A4.678,4.678,0,0,0,45.98,59.02l.031-.055a2.958,2.958,0,0,0-.14-.581c-.8-2.61-1.644-5.257-2.461-7.817-.876-2.749-1.783-5.591-2.64-8.4l-.138-.453.145-.451c.042-.129.074-.233.1-.326v0c1.15-3.765,2.286-7.605,3.386-11.32,1.645-5.558,3.346-11.305,5.13-16.932.092-.3.308-.936.581-1.742C50.43,9.6,51.372,6.82,51.468,6.3l.009-.045a3.821,3.821,0,0,0-.322-2.78l-.03-.056a4.248,4.248,0,0,0-3.714-1.9c-.154,0-.31.008-.461.022A4.935,4.935,0,0,0,44.1,2.944l-.026.025c-.074.07-.761.795-1.965,4.588-.7,2.2-1.272,4.52-1.455,5.459l-.016.071c-1.186,4.842-2.083,9.84-2.8,14.091l-1.044,6.158-2.047-6.462c-1.535-4.847-3.122-9.858-4.578-14.827-.084-.275-.243-.864-.443-1.606-.321-1.189-.988-3.662-1.18-4.1L28.52,6.3A2.991,2.991,0,0,0,26.886,4.57l-.057-.026A3.093,3.093,0,0,0,25.5,4.283a5.613,5.613,0,0,0-3.282,1.133,4.687,4.687,0,0,0-1.635,2.5l-.01.039c-.009.034-.211.873.777,4.244A46.585,46.585,0,0,0,23,16.882l.03.075c1.758,4.659,3.857,9.144,6.033,13.71l3.1,6.495-5.447-4.7c-4.237-3.657-8.737-7.552-13.093-11.446-.257-.226-.807-.734-1.5-1.377-1.214-1.124-3.474-3.217-3.962-3.561l-.034-.025A4.542,4.542,0,0,0,5.149,15H5.085A3.988,3.988,0,0,0,1.674,17.93a5.2,5.2,0,0,0,.278,3.349l.013.034c.068.175.57,1.2,3.789,4.075C7.645,27.079,9.7,28.7,10.549,29.319l.053.04c5.322,4.2,11.03,8.093,16.55,11.86,1.978,1.35,4.024,2.746,6.024,4.136l.342.238.172.379c1.34,2.955,2.89,5.91,4.389,8.767C39.061,56.612,40.077,58.548,41.03,60.476Z" transform="translate(1.517 576.26)" fill="#e7e7e7"/><path d="M16.807,64.387a8.03,8.03,0,0,1-5.535-2.178,3.408,3.408,0,0,1-1.239-2.692l0-.044.005-.044c.25-2.137.45-4.336.645-6.462.285-3.121.579-6.343,1.038-9.506-.867-2.108-1.763-4.243-2.632-6.311C6.483,30.942,3.786,24.523,1.565,18.01,1.18,17.018.316,14.5-.413,11.833-1.646,7.319-1.587,5.748-1.429,4.963A8.147,8.147,0,0,1,1.151.273l.012-.01A7.478,7.478,0,0,1,5.931-1.511,6.048,6.048,0,0,1,9.194-.6a7.545,7.545,0,0,1,3.194,4.024c.277.708.823,2.821,1.508,5.506.22.862.409,1.606.49,1.891l0,.014c.9,3.307,1.836,6.59,2.787,9.887.407-2.669.869-5.323,1.444-7.98a49.807,49.807,0,0,1,1.25-5.186C20.992,3.793,21.848,2.692,22.4,2.2a7.655,7.655,0,0,1,4.519-2h.014c.214-.017.432-.025.649-.025a7.744,7.744,0,0,1,6.5,3.211,5.984,5.984,0,0,1,.878,4.519c-.1.6-.518,1.966-1.356,4.576-.213.663-.4,1.235-.46,1.454l0,.014c-.932,3.133-1.831,6.314-2.707,9.474,1.878-1.969,3.879-3.995,5.936-5.938.685-.707,2.46-2.39,4.418-4,3.345-2.755,4.74-3.276,5.5-3.42a8.2,8.2,0,0,1,1.665-.171,7.742,7.742,0,0,1,3.461.8l.013.006a7.344,7.344,0,0,1,4.116,6.824,6.8,6.8,0,0,1-2.106,4.413c-.5.518-2.072,1.774-4.072,3.36-.629.5-1.172.929-1.375,1.1l-.011.01c-4.54,3.743-9.087,7.641-13.485,11.41-2.918,2.5-5.935,5.087-8.927,7.609-.748,2.633-1.477,5.313-2.184,7.91-.716,2.632-1.456,5.353-2.216,8.025v0a3.514,3.514,0,0,1-1.731,2.427A5.543,5.543,0,0,1,16.807,64.387Zm-3.75-4.726a.926.926,0,0,0,.251.314l.056.048.051.053a5.074,5.074,0,0,0,3.393,1.289,2.58,2.58,0,0,0,1.2-.238l.055-.029a2.952,2.952,0,0,0,.2-.565c.756-2.657,1.494-5.369,2.207-7.993.749-2.753,1.523-5.6,2.321-8.394l.131-.458.369-.3c.083-.068.165-.136.246-.2l.02-.017c3-2.529,6.037-5.131,8.972-7.647,4.406-3.777,8.963-7.683,13.523-11.443.239-.2.768-.62,1.437-1.15,1.1-.876,3.4-2.7,3.771-3.086l.032-.032A3.818,3.818,0,0,0,52.526,17.3l.005-.064a4.359,4.359,0,0,0-2.483-3.846,4.709,4.709,0,0,0-2.1-.475,5.167,5.167,0,0,0-1.061.11l-.038.007c-.1.018-1.07.253-4.142,2.784-1.784,1.47-3.523,3.1-4.188,3.793l-.051.05c-3.625,3.423-7.094,7.132-10.008,10.308l-4.219,4.6,1.694-6.183c1.375-5.018,2.8-10.208,4.307-15.288.077-.268.257-.829.485-1.537.381-1.187,1.174-3.657,1.25-4.131l.008-.049a2.986,2.986,0,0,0-.433-2.337l-.035-.055A4.86,4.86,0,0,0,27.58,3.2c-.136,0-.272.005-.4.016a4.683,4.683,0,0,0-2.73,1.207l-.031.028c-.026.023-.652.618-1.653,3.985A46.559,46.559,0,0,0,21.6,13.263l-.015.079c-1.056,4.868-1.73,9.773-2.382,14.788l-.929,7.136-2.02-6.907c-1.644-5.623-3.247-11.133-4.775-16.722-.093-.327-.277-1.05-.509-1.963C10.558,8.068,9.8,5.079,9.574,4.523l-.015-.039a4.553,4.553,0,0,0-1.922-2.5l-.055-.034a3.034,3.034,0,0,0-1.651-.443,4.411,4.411,0,0,0-2.8,1.048A5.2,5.2,0,0,0,1.541,5.522l-.007.035c-.038.184-.17,1.313.968,5.479.669,2.448,1.508,4.927,1.89,5.906L4.415,17c2.19,6.425,4.87,12.805,7.463,18.975.924,2.2,1.88,4.474,2.8,6.719l.158.385-.062.412c-.482,3.209-.785,6.532-1.078,9.746C13.5,55.348,13.3,57.524,13.057,59.661Z" transform="translate(66.36 511.432)" fill="#e7e7e7"/><path d="M42.3,63.735a6.228,6.228,0,0,1-1.38-.149A3.415,3.415,0,0,1,38.416,62l-.023-.04-.02-.041c-.951-1.93-1.978-3.886-2.97-5.778C33.946,53.368,32.444,50.5,31.11,47.6c-1.88-1.3-3.8-2.615-5.661-3.885-5.554-3.79-11.3-7.708-16.694-11.964-.862-.624-2.954-2.268-5.016-4.112C.252,24.52-.552,23.169-.845,22.424a8.146,8.146,0,0,1-.382-5.34l0-.016A6.952,6.952,0,0,1,5.049,11.98a7.543,7.543,0,0,1,4.868,1.643c.617.444,2.221,1.919,4.25,3.8.656.607,1.222,1.132,1.445,1.327l.012.01c2.546,2.276,5.144,4.555,7.711,6.787-1.109-2.462-2.162-4.942-3.122-7.484a49.828,49.828,0,0,1-1.768-5.033c-1.1-3.766-.982-5.156-.788-5.869a7.659,7.659,0,0,1,2.71-4.131l.011-.009A8.615,8.615,0,0,1,25.5,1.261a6.127,6.127,0,0,1,2.612.548,5.991,5.991,0,0,1,3.192,3.317c.243.554.627,1.912,1.333,4.527.18.667.35,1.3.418,1.519l.005.018c.919,3.136,1.892,6.3,2.873,9.422.507-2.673,1.087-5.461,1.759-8.209.191-.965.766-3.341,1.534-5.759,1.312-4.132,2.2-5.327,2.757-5.858a7.9,7.9,0,0,1,4.645-2.256l.015,0c.253-.025.512-.038.769-.038A7.2,7.2,0,0,1,53.807,2.02a6.8,6.8,0,0,1,.629,4.849c-.137.707-.776,2.618-1.6,5.039-.257.758-.478,1.412-.555,1.665l0,.014c-1.775,5.6-3.473,11.336-5.115,16.883-1.093,3.693-2.223,7.511-3.368,11.261.811,2.648,1.665,5.326,2.492,7.921.819,2.567,1.665,5.222,2.47,7.847l0,.006a3.511,3.511,0,0,1-.135,2.977,6.086,6.086,0,0,1-2.705,2.392A8.458,8.458,0,0,1,42.3,63.735ZM41.03,60.476a.916.916,0,0,0,.382.128l.073.01.072.017a3.168,3.168,0,0,0,.74.081A4.678,4.678,0,0,0,45.98,59.02l.031-.055a2.956,2.956,0,0,0-.14-.581c-.8-2.61-1.644-5.257-2.46-7.816-.876-2.749-1.783-5.591-2.64-8.4l-.138-.453.145-.451c.042-.129.074-.233.1-.326v0c1.15-3.765,2.287-7.606,3.386-11.32,1.645-5.558,3.346-11.3,5.129-16.931.091-.3.308-.936.58-1.742C50.43,9.6,51.372,6.82,51.468,6.3l.009-.045a3.821,3.821,0,0,0-.322-2.78l-.03-.056a4.248,4.248,0,0,0-3.714-1.9c-.155,0-.31.008-.462.022A4.935,4.935,0,0,0,44.1,2.944l-.026.025c-.074.07-.761.795-1.965,4.588-.7,2.205-1.272,4.52-1.455,5.459l-.016.071c-1.186,4.842-2.083,9.84-2.8,14.091l-1.044,6.158-2.047-6.462c-1.535-4.846-3.122-9.858-4.578-14.827-.084-.275-.243-.864-.443-1.607-.321-1.189-.988-3.662-1.18-4.1L28.52,6.3A2.991,2.991,0,0,0,26.886,4.57l-.057-.026A3.093,3.093,0,0,0,25.5,4.283a5.613,5.613,0,0,0-3.282,1.133,4.687,4.687,0,0,0-1.635,2.5l-.01.039c-.009.034-.211.873.778,4.244A46.581,46.581,0,0,0,23,16.882l.031.075c1.758,4.659,3.857,9.144,6.033,13.71l3.1,6.495-5.447-4.7c-4.237-3.657-8.737-7.552-13.092-11.445-.257-.225-.807-.734-1.5-1.378-1.214-1.124-3.474-3.216-3.962-3.561l-.034-.025A4.542,4.542,0,0,0,5.149,15H5.085A3.988,3.988,0,0,0,1.674,17.93a5.2,5.2,0,0,0,.278,3.349l.013.034c.068.175.57,1.2,3.789,4.075C7.645,27.079,9.7,28.7,10.549,29.319l.053.04c5.322,4.2,11.03,8.093,16.55,11.86,1.978,1.35,4.024,2.746,6.023,4.136l.342.238.172.379c1.34,2.955,2.89,5.91,4.389,8.767C39.061,56.612,40.077,58.547,41.03,60.476Z" transform="translate(1.517 448.781)" fill="#e7e7e7"/><path d="M16.807,64.386h0a8.03,8.03,0,0,1-5.535-2.178,3.408,3.408,0,0,1-1.238-2.692l0-.044.005-.044c.25-2.137.451-4.336.645-6.462.285-3.121.579-6.343,1.038-9.506-.867-2.108-1.764-4.243-2.633-6.312C6.483,30.942,3.786,24.523,1.565,18.01,1.18,17.018.316,14.5-.413,11.833-1.646,7.319-1.587,5.748-1.429,4.963A8.147,8.147,0,0,1,1.151.273l.012-.01A7.478,7.478,0,0,1,5.931-1.511,6.048,6.048,0,0,1,9.194-.6a7.544,7.544,0,0,1,3.194,4.025c.277.708.824,2.821,1.508,5.506.22.862.409,1.606.49,1.89l0,.014c.9,3.307,1.836,6.59,2.787,9.887.407-2.669.869-5.323,1.444-7.98a49.809,49.809,0,0,1,1.25-5.186C20.992,3.793,21.848,2.692,22.4,2.2a7.655,7.655,0,0,1,4.519-2h.014c.214-.017.432-.025.649-.025a7.743,7.743,0,0,1,6.5,3.211,5.984,5.984,0,0,1,.878,4.519c-.1.6-.518,1.965-1.356,4.575-.213.663-.4,1.236-.46,1.455l0,.014c-.932,3.133-1.831,6.315-2.707,9.473,1.878-1.969,3.879-3.995,5.936-5.938.685-.707,2.46-2.39,4.418-4,3.344-2.755,4.74-3.276,5.5-3.42a8.2,8.2,0,0,1,1.666-.171,7.742,7.742,0,0,1,3.461.8l.013.006a7.342,7.342,0,0,1,4.116,6.823,6.8,6.8,0,0,1-2.106,4.414c-.5.517-2.071,1.774-4.071,3.359-.629.5-1.173.929-1.375,1.1l-.011.01c-4.54,3.743-9.087,7.641-13.485,11.411-2.918,2.5-5.934,5.087-8.926,7.609-.748,2.633-1.477,5.313-2.184,7.909-.716,2.632-1.457,5.353-2.216,8.025v0a3.513,3.513,0,0,1-1.731,2.427A5.545,5.545,0,0,1,16.807,64.386Zm-3.751-4.726a.926.926,0,0,0,.251.314l.056.048.051.053a5.074,5.074,0,0,0,3.393,1.288h0a2.583,2.583,0,0,0,1.2-.238l.054-.029a2.953,2.953,0,0,0,.2-.565c.756-2.657,1.494-5.37,2.208-7.993.749-2.753,1.523-5.6,2.321-8.393l.131-.458.369-.3c.083-.067.164-.136.245-.2l.022-.018c3-2.529,6.037-5.13,8.972-7.647,4.406-3.777,8.963-7.683,13.523-11.443.239-.2.769-.621,1.438-1.151,1.1-.876,3.4-2.7,3.77-3.085l.031-.032A3.819,3.819,0,0,0,52.526,17.3l.005-.065a4.358,4.358,0,0,0-2.484-3.845,4.709,4.709,0,0,0-2.1-.475,5.167,5.167,0,0,0-1.061.11l-.038.007c-.1.018-1.07.253-4.142,2.784-1.784,1.47-3.523,3.1-4.188,3.793l-.051.05c-3.626,3.423-7.094,7.132-10.008,10.308l-4.219,4.6,1.693-6.181c1.375-5.019,2.8-10.208,4.307-15.288.077-.268.258-.829.485-1.539.381-1.187,1.174-3.656,1.25-4.13l.008-.049a2.986,2.986,0,0,0-.433-2.337l-.035-.055A4.859,4.859,0,0,0,27.58,3.2c-.136,0-.271.005-.4.015a4.683,4.683,0,0,0-2.73,1.207l-.031.028c-.026.023-.652.618-1.653,3.985A46.56,46.56,0,0,0,21.6,13.263l-.015.079c-1.056,4.868-1.73,9.773-2.382,14.788l-.929,7.136-2.02-6.907C14.607,22.735,13,17.224,11.477,11.636c-.093-.327-.277-1.05-.509-1.963-.409-1.606-1.171-4.6-1.393-5.151l-.015-.039a4.553,4.553,0,0,0-1.922-2.5l-.055-.034a3.034,3.034,0,0,0-1.651-.443,4.412,4.412,0,0,0-2.8,1.048A5.2,5.2,0,0,0,1.541,5.522l-.007.035c-.038.184-.17,1.313.968,5.479.669,2.448,1.508,4.927,1.89,5.906L4.415,17c2.19,6.425,4.87,12.8,7.463,18.975.924,2.2,1.88,4.474,2.8,6.719l.158.385-.062.412c-.482,3.209-.785,6.532-1.078,9.746C13.5,55.348,13.3,57.524,13.057,59.661Z" transform="translate(66.36 383.953)" fill="#e7e7e7"/><path d="M42.3,63.734h0a6.23,6.23,0,0,1-1.38-.149A3.415,3.415,0,0,1,38.416,62l-.023-.04-.02-.041c-.951-1.93-1.978-3.886-2.97-5.778C33.946,53.368,32.444,50.5,31.11,47.6c-1.881-1.3-3.8-2.615-5.662-3.885-5.554-3.789-11.3-7.708-16.693-11.964-.862-.624-2.954-2.268-5.016-4.112C.253,24.521-.552,23.169-.845,22.424a8.147,8.147,0,0,1-.382-5.34l0-.016A6.953,6.953,0,0,1,5.049,11.98a7.543,7.543,0,0,1,4.868,1.643c.616.443,2.219,1.917,4.248,3.795.657.608,1.224,1.133,1.448,1.329l.012.01c2.546,2.276,5.144,4.555,7.71,6.786-1.108-2.46-2.161-4.939-3.122-7.484a49.831,49.831,0,0,1-1.768-5.033c-1.1-3.767-.982-5.157-.788-5.869a7.659,7.659,0,0,1,2.71-4.131l.011-.009A8.615,8.615,0,0,1,25.5,1.26a6.127,6.127,0,0,1,2.612.548,5.99,5.99,0,0,1,3.192,3.317c.243.554.627,1.912,1.332,4.526.18.667.35,1.3.418,1.519l.005.018c.919,3.136,1.892,6.3,2.873,9.422.507-2.673,1.087-5.461,1.759-8.209.191-.965.766-3.341,1.534-5.759,1.311-4.131,2.2-5.326,2.757-5.858a7.9,7.9,0,0,1,4.645-2.257l.016,0c.253-.025.51-.038.766-.038a7.2,7.2,0,0,1,6.4,3.53,6.8,6.8,0,0,1,.629,4.85c-.137.707-.776,2.619-1.6,5.039-.257.758-.478,1.412-.555,1.665l0,.014c-1.775,5.6-3.473,11.336-5.115,16.882-1.093,3.693-2.223,7.511-3.368,11.261.811,2.648,1.665,5.326,2.492,7.921.819,2.567,1.665,5.222,2.47,7.847l0,.006a3.511,3.511,0,0,1-.135,2.977,6.085,6.085,0,0,1-2.705,2.392A8.457,8.457,0,0,1,42.3,63.734ZM41.03,60.476a.916.916,0,0,0,.382.128l.073.01.072.017a3.17,3.17,0,0,0,.74.081h0A4.678,4.678,0,0,0,45.98,59.02l.031-.055a2.957,2.957,0,0,0-.14-.581c-.8-2.61-1.644-5.257-2.46-7.816-.876-2.749-1.783-5.591-2.64-8.4l-.138-.453.145-.451c.041-.129.074-.232.1-.326v0c1.15-3.765,2.287-7.606,3.386-11.321,1.645-5.558,3.346-11.3,5.129-16.93.091-.3.308-.936.58-1.742C50.43,9.6,51.372,6.82,51.468,6.3l.009-.045a3.82,3.82,0,0,0-.322-2.78l-.03-.056a4.25,4.25,0,0,0-3.716-1.9c-.154,0-.308.007-.459.022A4.935,4.935,0,0,0,44.1,2.944l-.026.025c-.074.07-.761.795-1.965,4.588-.7,2.2-1.272,4.52-1.455,5.459l-.016.071c-1.186,4.842-2.083,9.84-2.8,14.091l-1.044,6.158-2.046-6.461c-1.535-4.847-3.123-9.858-4.578-14.828-.084-.275-.243-.864-.443-1.607-.321-1.189-.988-3.662-1.18-4.1L28.52,6.3A2.991,2.991,0,0,0,26.886,4.57l-.057-.026A3.093,3.093,0,0,0,25.5,4.282a5.613,5.613,0,0,0-3.282,1.133,4.687,4.687,0,0,0-1.635,2.5l-.01.039c-.009.034-.211.873.777,4.244A46.582,46.582,0,0,0,23,16.882l.03.075c1.761,4.668,3.859,9.149,6.033,13.71l3.1,6.5-5.448-4.7c-4.236-3.656-8.735-7.55-13.092-11.445-.257-.225-.808-.735-1.5-1.38-1.214-1.123-3.472-3.214-3.96-3.56l-.033-.024A4.542,4.542,0,0,0,5.149,15H5.085A3.988,3.988,0,0,0,1.674,17.93a5.2,5.2,0,0,0,.278,3.349l.013.034c.068.175.57,1.2,3.789,4.075C7.645,27.079,9.7,28.7,10.549,29.319l.053.04c5.322,4.2,11.03,8.093,16.55,11.86,1.978,1.35,4.024,2.746,6.024,4.136l.342.238.172.379c1.34,2.955,2.89,5.91,4.389,8.767C39.061,56.611,40.077,58.547,41.03,60.476Z" transform="translate(1.517 321.303)" fill="#e7e7e7"/><path d="M16.807,64.387h0a8.03,8.03,0,0,1-5.535-2.178,3.408,3.408,0,0,1-1.238-2.692l0-.044.005-.044c.25-2.137.45-4.336.645-6.462.285-3.121.579-6.343,1.038-9.506-.867-2.108-1.764-4.243-2.633-6.312C6.483,30.942,3.786,24.523,1.565,18.01,1.18,17.018.316,14.5-.413,11.833-1.646,7.319-1.587,5.748-1.429,4.963A8.147,8.147,0,0,1,1.151.273l.012-.01A7.478,7.478,0,0,1,5.931-1.511,6.048,6.048,0,0,1,9.194-.6a7.544,7.544,0,0,1,3.194,4.024c.277.708.824,2.821,1.508,5.506.22.862.409,1.606.49,1.89l0,.014c.9,3.307,1.836,6.59,2.787,9.887.407-2.669.869-5.323,1.444-7.98a49.807,49.807,0,0,1,1.25-5.186C20.992,3.793,21.848,2.691,22.4,2.2a7.655,7.655,0,0,1,4.519-2h.014c.214-.017.432-.025.649-.025a7.743,7.743,0,0,1,6.5,3.211,5.985,5.985,0,0,1,.879,4.519c-.1.6-.518,1.965-1.356,4.574-.213.663-.4,1.236-.46,1.456l0,.014c-.932,3.133-1.831,6.314-2.707,9.473,1.878-1.969,3.879-3.995,5.936-5.938.685-.707,2.46-2.39,4.417-4,3.344-2.755,4.74-3.276,5.5-3.42a8.2,8.2,0,0,1,1.666-.171,7.742,7.742,0,0,1,3.461.8l.013.006a7.343,7.343,0,0,1,4.116,6.824,6.8,6.8,0,0,1-2.106,4.413c-.5.518-2.072,1.774-4.072,3.36-.629.5-1.172.929-1.375,1.1l-.011.01c-4.54,3.743-9.087,7.641-13.485,11.411-2.918,2.5-5.935,5.087-8.927,7.609-.748,2.633-1.477,5.313-2.184,7.909-.716,2.632-1.456,5.353-2.216,8.025v0a3.513,3.513,0,0,1-1.731,2.427A5.542,5.542,0,0,1,16.807,64.387Zm-3.75-4.726a.926.926,0,0,0,.251.314l.056.048.051.053a5.074,5.074,0,0,0,3.393,1.289,2.572,2.572,0,0,0,1.2-.238l.055-.029a2.953,2.953,0,0,0,.2-.565c.756-2.657,1.494-5.37,2.208-7.993.749-2.753,1.523-5.6,2.321-8.393l.131-.458.369-.3c.083-.068.165-.136.246-.2l.02-.017c3-2.529,6.037-5.131,8.972-7.647,4.406-3.777,8.963-7.683,13.523-11.443.239-.2.768-.62,1.437-1.15,1.1-.876,3.4-2.7,3.771-3.086l.032-.032A3.818,3.818,0,0,0,52.526,17.3l.005-.064a4.359,4.359,0,0,0-2.484-3.846,4.709,4.709,0,0,0-2.1-.475,5.167,5.167,0,0,0-1.061.11l-.038.007c-.1.018-1.07.253-4.142,2.784-1.784,1.47-3.523,3.1-4.188,3.793l-.051.05c-3.626,3.423-7.094,7.132-10.008,10.308l-4.219,4.6,1.693-6.18c1.375-5.019,2.8-10.209,4.307-15.29.077-.268.258-.83.485-1.539.381-1.187,1.174-3.656,1.25-4.13l.008-.049a2.986,2.986,0,0,0-.433-2.337l-.035-.055A4.859,4.859,0,0,0,27.58,3.2c-.136,0-.272.005-.4.016a4.682,4.682,0,0,0-2.729,1.207l-.031.028c-.026.023-.652.618-1.653,3.985A46.562,46.562,0,0,0,21.6,13.263l-.015.079c-1.056,4.868-1.73,9.773-2.382,14.788l-.929,7.136-2.02-6.907c-1.644-5.623-3.247-11.133-4.775-16.721-.093-.327-.277-1.05-.509-1.963-.409-1.606-1.171-4.6-1.393-5.151l-.015-.039a4.553,4.553,0,0,0-1.922-2.5l-.055-.034a3.034,3.034,0,0,0-1.651-.443,4.411,4.411,0,0,0-2.8,1.048A5.2,5.2,0,0,0,1.541,5.522l-.007.035c-.038.184-.17,1.313.968,5.479.669,2.448,1.508,4.927,1.89,5.906L4.415,17c2.19,6.425,4.87,12.8,7.462,18.975.924,2.2,1.88,4.475,2.8,6.719l.158.385-.062.412c-.482,3.209-.785,6.532-1.078,9.746C13.5,55.348,13.3,57.524,13.057,59.661Z" transform="translate(66.36 256.475)" fill="#e7e7e7"/><path d="M42.3,63.734h0a6.228,6.228,0,0,1-1.38-.149A3.415,3.415,0,0,1,38.416,62l-.023-.04-.02-.041c-.951-1.93-1.978-3.886-2.97-5.778C33.946,53.368,32.444,50.5,31.11,47.6c-1.88-1.3-3.8-2.615-5.661-3.885-5.554-3.79-11.3-7.708-16.693-11.964-.862-.624-2.955-2.268-5.016-4.112C.253,24.521-.551,23.169-.845,22.424a8.146,8.146,0,0,1-.383-5.341l0-.016A6.953,6.953,0,0,1,5.049,11.98a7.543,7.543,0,0,1,4.868,1.643c.616.443,2.219,1.917,4.248,3.795.657.608,1.225,1.134,1.448,1.329l.012.01c2.546,2.276,5.144,4.555,7.71,6.786-1.108-2.46-2.161-4.939-3.122-7.484a49.826,49.826,0,0,1-1.768-5.033c-1.1-3.767-.982-5.156-.788-5.869a7.659,7.659,0,0,1,2.71-4.131l.011-.009A8.615,8.615,0,0,1,25.5,1.26a6.127,6.127,0,0,1,2.612.548,5.991,5.991,0,0,1,3.192,3.317c.243.554.627,1.912,1.332,4.527.18.667.35,1.3.418,1.519l.005.018c.919,3.136,1.892,6.3,2.873,9.422.507-2.673,1.087-5.461,1.759-8.209.191-.965.766-3.341,1.534-5.759,1.312-4.132,2.2-5.327,2.757-5.858a7.9,7.9,0,0,1,4.645-2.256l.016,0c.253-.025.51-.038.766-.038a7.2,7.2,0,0,1,6.4,3.531,6.8,6.8,0,0,1,.629,4.85c-.137.707-.776,2.619-1.6,5.039-.257.758-.478,1.412-.555,1.665l0,.014c-1.775,5.6-3.473,11.336-5.115,16.883-1.093,3.693-2.223,7.511-3.368,11.261.811,2.648,1.665,5.327,2.493,7.921.819,2.567,1.665,5.222,2.47,7.846l0,.006a3.511,3.511,0,0,1-.135,2.977,6.085,6.085,0,0,1-2.705,2.392A8.458,8.458,0,0,1,42.3,63.734ZM41.03,60.476a.916.916,0,0,0,.382.128l.073.01.072.017a3.168,3.168,0,0,0,.74.081A4.678,4.678,0,0,0,45.98,59.02l.031-.055a2.958,2.958,0,0,0-.14-.581c-.8-2.61-1.644-5.256-2.46-7.816-.877-2.749-1.783-5.592-2.64-8.4l-.138-.453.145-.451c.042-.129.074-.232.1-.326v0c1.15-3.765,2.287-7.606,3.386-11.32,1.645-5.558,3.346-11.3,5.129-16.931.092-.3.308-.936.58-1.742C50.43,9.6,51.372,6.82,51.468,6.3l.009-.045a3.819,3.819,0,0,0-.322-2.78l-.03-.056a4.25,4.25,0,0,0-3.716-1.9c-.154,0-.308.007-.459.022A4.935,4.935,0,0,0,44.1,2.944l-.026.025c-.074.07-.761.795-1.965,4.588-.7,2.2-1.272,4.52-1.455,5.459l-.016.071c-1.186,4.842-2.083,9.84-2.8,14.091l-1.044,6.158-2.046-6.461c-1.535-4.847-3.123-9.859-4.578-14.828-.084-.275-.243-.864-.443-1.606-.321-1.189-.988-3.662-1.18-4.1L28.52,6.3A2.991,2.991,0,0,0,26.886,4.57l-.057-.026A3.093,3.093,0,0,0,25.5,4.282a5.613,5.613,0,0,0-3.282,1.133,4.687,4.687,0,0,0-1.636,2.5l-.01.039c-.009.034-.211.873.777,4.244A46.585,46.585,0,0,0,23,16.882l.031.075c1.761,4.668,3.858,9.149,6.033,13.71l3.1,6.5-5.448-4.7c-4.236-3.656-8.737-7.552-13.093-11.446-.258-.226-.808-.735-1.5-1.379-1.214-1.123-3.472-3.214-3.96-3.56l-.033-.024A4.542,4.542,0,0,0,5.149,15H5.085A3.988,3.988,0,0,0,1.674,17.93a5.2,5.2,0,0,0,.278,3.349l.013.034c.068.175.57,1.2,3.789,4.074C7.645,27.079,9.7,28.7,10.549,29.319l.053.04c5.322,4.2,11.03,8.093,16.55,11.86,1.978,1.35,4.024,2.746,6.023,4.136l.342.238.172.379c1.34,2.955,2.89,5.91,4.389,8.767C39.061,56.611,40.077,58.547,41.03,60.476Z" transform="translate(1.517 193.824)" fill="#e7e7e7"/><path d="M16.807,64.387h0a8.029,8.029,0,0,1-5.535-2.178,3.408,3.408,0,0,1-1.238-2.691l0-.044.005-.044c.25-2.137.45-4.336.645-6.462.285-3.121.579-6.343,1.038-9.506-.867-2.108-1.764-4.243-2.633-6.311C6.483,30.942,3.786,24.523,1.565,18.01,1.18,17.018.316,14.5-.413,11.833-1.646,7.319-1.587,5.748-1.429,4.963A8.147,8.147,0,0,1,1.151.273l.012-.01A7.478,7.478,0,0,1,5.931-1.511,6.049,6.049,0,0,1,9.194-.6a7.545,7.545,0,0,1,3.194,4.025c.277.708.823,2.821,1.507,5.505.22.862.409,1.606.49,1.89l0,.014c.9,3.307,1.836,6.59,2.787,9.887.407-2.669.869-5.323,1.444-7.98a49.807,49.807,0,0,1,1.25-5.186C20.992,3.792,21.848,2.691,22.4,2.2a7.655,7.655,0,0,1,4.519-2h.014c.214-.017.432-.025.649-.025a7.743,7.743,0,0,1,6.5,3.211,5.984,5.984,0,0,1,.878,4.519c-.1.6-.518,1.966-1.356,4.575-.213.663-.4,1.236-.46,1.455l0,.014c-.932,3.133-1.831,6.314-2.707,9.473,1.878-1.969,3.879-3.995,5.936-5.938.685-.707,2.46-2.39,4.417-4,3.344-2.755,4.74-3.276,5.5-3.42a8.2,8.2,0,0,1,1.666-.171,7.742,7.742,0,0,1,3.461.8l.013.006a7.343,7.343,0,0,1,4.116,6.824,6.8,6.8,0,0,1-2.106,4.413c-.5.517-2.071,1.774-4.072,3.36-.629.5-1.172.929-1.375,1.1l-.011.01c-4.54,3.743-9.087,7.641-13.484,11.41-2.918,2.5-5.935,5.087-8.927,7.609-.748,2.633-1.477,5.313-2.184,7.91-.716,2.632-1.456,5.353-2.216,8.025v0a3.514,3.514,0,0,1-1.731,2.427A5.543,5.543,0,0,1,16.807,64.387Zm-3.75-4.726a.926.926,0,0,0,.251.314l.056.048.051.053a5.074,5.074,0,0,0,3.393,1.289h0a2.58,2.58,0,0,0,1.2-.238l.055-.029a2.954,2.954,0,0,0,.2-.565c.756-2.657,1.494-5.369,2.207-7.993.749-2.753,1.523-5.6,2.321-8.394l.131-.458.369-.3c.084-.069.167-.138.249-.207l.017-.014c3-2.529,6.037-5.131,8.972-7.647,4.406-3.777,8.963-7.683,13.523-11.443.239-.2.769-.62,1.437-1.15,1.1-.876,3.4-2.7,3.77-3.086l.032-.032A3.818,3.818,0,0,0,52.526,17.3l.005-.064a4.359,4.359,0,0,0-2.484-3.846,4.709,4.709,0,0,0-2.1-.475,5.167,5.167,0,0,0-1.061.11l-.038.007c-.1.018-1.07.253-4.142,2.784-1.784,1.47-3.523,3.1-4.188,3.793l-.051.05c-3.626,3.424-7.094,7.132-10.008,10.308l-4.219,4.6,1.692-6.179c1.375-5.02,2.8-10.211,4.308-15.292.077-.268.257-.829.485-1.537.381-1.187,1.174-3.656,1.25-4.13l.008-.049a2.986,2.986,0,0,0-.433-2.337l-.035-.055A4.859,4.859,0,0,0,27.58,3.2c-.136,0-.271.005-.4.015a4.682,4.682,0,0,0-2.73,1.207l-.031.028c-.026.023-.652.618-1.653,3.985A46.562,46.562,0,0,0,21.6,13.263l-.015.079c-1.056,4.868-1.73,9.773-2.382,14.788l-.929,7.136-2.02-6.907c-1.644-5.623-3.247-11.134-4.775-16.722-.093-.327-.277-1.05-.509-1.963-.409-1.606-1.171-4.6-1.393-5.15l-.015-.039a4.553,4.553,0,0,0-1.922-2.5l-.055-.034a3.034,3.034,0,0,0-1.651-.443,4.412,4.412,0,0,0-2.8,1.048A5.2,5.2,0,0,0,1.541,5.522l-.007.035c-.038.184-.17,1.313.968,5.479.669,2.448,1.508,4.927,1.89,5.906L4.415,17c2.19,6.425,4.87,12.805,7.463,18.975.924,2.2,1.88,4.474,2.8,6.719l.158.385-.062.412c-.482,3.209-.785,6.532-1.078,9.746C13.5,55.348,13.3,57.524,13.057,59.661Z" transform="translate(66.36 128.996)" fill="#e7e7e7"/><path d="M42.3,63.735a6.229,6.229,0,0,1-1.38-.149A3.415,3.415,0,0,1,38.416,62l-.023-.04-.02-.041c-.951-1.93-1.978-3.886-2.97-5.778C33.947,53.368,32.444,50.5,31.11,47.6c-1.88-1.3-3.8-2.615-5.662-3.885-5.554-3.79-11.3-7.708-16.693-11.964-.862-.624-2.954-2.268-5.016-4.112C.253,24.521-.551,23.169-.845,22.425a8.146,8.146,0,0,1-.383-5.341l0-.016A6.953,6.953,0,0,1,5.049,11.98a7.542,7.542,0,0,1,4.868,1.643c.617.443,2.221,1.918,4.251,3.8.656.607,1.222,1.132,1.445,1.327l.012.01c2.546,2.276,5.144,4.555,7.711,6.787-1.109-2.462-2.162-4.942-3.122-7.484a49.826,49.826,0,0,1-1.768-5.033c-1.1-3.767-.982-5.156-.788-5.869a7.659,7.659,0,0,1,2.71-4.131l.011-.009A8.615,8.615,0,0,1,25.5,1.261a6.127,6.127,0,0,1,2.612.548,5.991,5.991,0,0,1,3.192,3.317c.243.554.627,1.912,1.332,4.527.18.667.35,1.3.418,1.519l.005.018c.919,3.136,1.892,6.3,2.873,9.422.507-2.673,1.087-5.461,1.759-8.209.191-.965.766-3.341,1.534-5.759,1.312-4.132,2.2-5.327,2.757-5.858a7.9,7.9,0,0,1,4.645-2.256l.015,0c.253-.025.512-.038.769-.038A7.2,7.2,0,0,1,53.807,2.02a6.8,6.8,0,0,1,.629,4.849c-.137.707-.776,2.618-1.6,5.039-.257.758-.478,1.412-.556,1.665l0,.014c-1.775,5.6-3.473,11.336-5.115,16.883-1.093,3.693-2.223,7.51-3.368,11.261.811,2.648,1.665,5.327,2.492,7.921.819,2.567,1.665,5.222,2.47,7.847l0,.006a3.511,3.511,0,0,1-.135,2.977,6.085,6.085,0,0,1-2.705,2.392A8.458,8.458,0,0,1,42.3,63.735ZM41.03,60.476a.916.916,0,0,0,.382.128l.073.01.072.017a3.169,3.169,0,0,0,.74.081A4.678,4.678,0,0,0,45.98,59.02l.031-.055a2.958,2.958,0,0,0-.14-.581c-.8-2.61-1.644-5.257-2.46-7.816-.877-2.749-1.783-5.591-2.64-8.4l-.138-.453.145-.451c.042-.129.074-.233.1-.326v0c1.15-3.765,2.287-7.606,3.386-11.32,1.645-5.558,3.346-11.3,5.129-16.931.092-.3.308-.936.58-1.742C50.43,9.6,51.372,6.82,51.468,6.3l.009-.045a3.821,3.821,0,0,0-.322-2.78l-.03-.056a4.248,4.248,0,0,0-3.714-1.9c-.155,0-.31.008-.462.022A4.936,4.936,0,0,0,44.1,2.944l-.026.025c-.074.07-.761.795-1.965,4.588-.7,2.2-1.272,4.52-1.455,5.459l-.016.071c-1.186,4.842-2.083,9.84-2.8,14.091l-1.044,6.158-2.046-6.461c-1.535-4.847-3.123-9.859-4.578-14.828-.084-.275-.243-.864-.443-1.607-.321-1.189-.988-3.662-1.18-4.1L28.52,6.3A2.991,2.991,0,0,0,26.886,4.57l-.057-.026A3.093,3.093,0,0,0,25.5,4.283a5.613,5.613,0,0,0-3.282,1.133,4.687,4.687,0,0,0-1.636,2.5l-.01.039c-.009.034-.211.873.777,4.244A46.585,46.585,0,0,0,23,16.882l.031.075c1.758,4.659,3.857,9.144,6.033,13.71l3.1,6.495-5.447-4.7C22.472,28.8,17.972,24.91,13.616,21.016c-.257-.225-.807-.734-1.5-1.378-1.214-1.124-3.474-3.216-3.961-3.561l-.034-.025A4.542,4.542,0,0,0,5.149,15H5.085A3.988,3.988,0,0,0,1.674,17.93a5.2,5.2,0,0,0,.278,3.349l.013.034c.068.175.57,1.2,3.789,4.074C7.645,27.079,9.7,28.7,10.549,29.319l.053.04c5.322,4.2,11.03,8.093,16.55,11.86,1.978,1.35,4.024,2.746,6.024,4.136l.342.238.172.379c1.34,2.955,2.89,5.91,4.389,8.767C39.061,56.612,40.077,58.547,41.03,60.476Z" transform="translate(1.517 66.345)" fill="#e7e7e7"/><path d="M16.807,64.386h0a8.03,8.03,0,0,1-5.535-2.178,3.408,3.408,0,0,1-1.238-2.691l0-.044.005-.044c.25-2.137.45-4.336.645-6.462.285-3.121.579-6.343,1.038-9.506-.867-2.108-1.764-4.243-2.633-6.311C6.483,30.942,3.786,24.523,1.565,18.01,1.18,17.018.316,14.5-.413,11.833-1.646,7.319-1.587,5.748-1.429,4.963A8.147,8.147,0,0,1,1.151.273l.012-.01A7.478,7.478,0,0,1,5.931-1.511,6.048,6.048,0,0,1,9.194-.6a7.545,7.545,0,0,1,3.194,4.025c.277.708.824,2.821,1.507,5.506.22.862.409,1.606.49,1.89l0,.014c.9,3.308,1.836,6.59,2.787,9.887.407-2.669.869-5.323,1.444-7.98a49.808,49.808,0,0,1,1.25-5.186c1.12-3.76,1.976-4.862,2.527-5.355a7.655,7.655,0,0,1,4.52-2h.014c.214-.017.432-.025.649-.025a7.743,7.743,0,0,1,6.5,3.211,5.984,5.984,0,0,1,.879,4.519c-.1.6-.518,1.965-1.356,4.575-.213.663-.4,1.236-.46,1.455l0,.014c-.932,3.133-1.831,6.314-2.707,9.473,1.875-1.966,3.875-3.99,5.935-5.937.685-.707,2.46-2.39,4.418-4,3.344-2.755,4.74-3.276,5.5-3.42a8.2,8.2,0,0,1,1.668-.171,7.731,7.731,0,0,1,3.46.8l.012.006a7.343,7.343,0,0,1,4.116,6.824,6.8,6.8,0,0,1-2.106,4.413c-.5.517-2.071,1.774-4.072,3.36-.629.5-1.172.929-1.375,1.1l-.011.01c-4.54,3.743-9.087,7.64-13.484,11.41-2.918,2.5-5.935,5.088-8.928,7.61-.748,2.633-1.477,5.313-2.184,7.909-.716,2.632-1.456,5.353-2.216,8.025v0a3.513,3.513,0,0,1-1.731,2.427A5.546,5.546,0,0,1,16.807,64.386Zm-3.751-4.726a.926.926,0,0,0,.251.314l.056.048.051.053a5.074,5.074,0,0,0,3.393,1.288h0a2.582,2.582,0,0,0,1.2-.238l.054-.029a2.953,2.953,0,0,0,.2-.565c.756-2.657,1.494-5.369,2.207-7.993.749-2.753,1.523-5.6,2.321-8.393l.131-.458.369-.3c.085-.069.168-.139.251-.208l.015-.012c3-2.529,6.038-5.131,8.973-7.648,4.406-3.777,8.962-7.683,13.522-11.442.239-.2.769-.62,1.437-1.151,1.1-.876,3.4-2.7,3.77-3.086l.032-.032A3.818,3.818,0,0,0,52.526,17.3l.005-.064a4.359,4.359,0,0,0-2.484-3.846,4.7,4.7,0,0,0-2.1-.475,5.175,5.175,0,0,0-1.063.11l-.038.007c-.1.018-1.07.253-4.142,2.784-1.784,1.47-3.523,3.1-4.188,3.793l-.051.05c-3.637,3.434-7.1,7.138-10.008,10.308l-4.22,4.6,1.693-6.182c1.375-5.019,2.8-10.21,4.307-15.291.077-.268.258-.829.485-1.538.381-1.187,1.174-3.656,1.25-4.13l.008-.049a2.986,2.986,0,0,0-.433-2.337l-.035-.055A4.86,4.86,0,0,0,27.58,3.2c-.136,0-.272.005-.4.016a4.682,4.682,0,0,0-2.729,1.207l-.031.028c-.026.023-.652.618-1.653,3.985A46.559,46.559,0,0,0,21.6,13.263l-.015.079c-1.056,4.868-1.73,9.773-2.382,14.788l-.929,7.136-2.02-6.907c-1.644-5.623-3.247-11.134-4.775-16.722-.093-.327-.277-1.05-.509-1.963-.409-1.606-1.171-4.6-1.393-5.15l-.015-.039a4.553,4.553,0,0,0-1.922-2.5l-.055-.034a3.034,3.034,0,0,0-1.651-.443,4.412,4.412,0,0,0-2.8,1.048A5.2,5.2,0,0,0,1.541,5.522l-.007.035c-.038.184-.17,1.313.968,5.479.669,2.448,1.508,4.927,1.89,5.906L4.415,17c2.19,6.425,4.87,12.805,7.463,18.975.924,2.2,1.88,4.474,2.8,6.719l.158.385-.062.412c-.482,3.209-.785,6.532-1.078,9.746C13.5,55.348,13.3,57.524,13.057,59.661Z" transform="translate(66.36 1.517)" fill="#e7e7e7"/></g></g></g></g></svg>