<svg xmlns="http://www.w3.org/2000/svg" width="293" height="75" viewBox="0 0 293 75"><g transform="translate(-813 -663.031)"><path d="M0,0H293V75H0Z" transform="translate(813 663.031)" fill="#b51c30"/><path d="M3,3V72H290V3H3M0,0H293V75H0Z" transform="translate(813 663.031)" fill="#b51c30"/><path d="M76.738,30.877a15.846,15.846,0,0,1-3.657,4.717,18.37,18.37,0,0,1-5.035,3.18,17.948,17.948,0,0,1-5.777,1.378,15.087,15.087,0,0,1-5.883-.742,10.036,10.036,0,0,1-2.517-1.219,19.578,19.578,0,0,1-2.2-1.7l-.345-.344q-.239-.239-.5-.53t-.5-.53a1.717,1.717,0,0,1-.292-.345,18.632,18.632,0,0,1-1.617-2.624,16.089,16.089,0,0,1-1.139-2.888,20.056,20.056,0,0,1-.8-6.333,23.267,23.267,0,0,1,1.06-6.281,1.735,1.735,0,0,1,.106-.424q.106-.318.212-.689t.212-.662q.106-.291.159-.4A13.39,13.39,0,0,1,49.39,12.38q.689-1.007,1.431-1.908a14.187,14.187,0,0,1,2.756-2.491A26.786,26.786,0,0,1,56.81,6.073q1.166-.53,2.332-1.007a6.378,6.378,0,0,1,2.438-.477q1.431-.053,2.942-.132A8.269,8.269,0,0,1,67.41,4.8a14.579,14.579,0,0,1,1.617.61,11.468,11.468,0,0,1,1.51.821,8.522,8.522,0,0,1,1.776,1.484q.768.848,1.51,1.749A18.963,18.963,0,0,1,76.5,14.023a31.464,31.464,0,0,1,1.617,5.035,18.471,18.471,0,0,1,.292,6.016A17.46,17.46,0,0,1,76.738,30.877ZM56.916,33.739a8.194,8.194,0,0,0,2.676,1.034,10.654,10.654,0,0,0,2.889.186,13.966,13.966,0,0,0,3.366-.636,11.352,11.352,0,0,0,3.048-1.484,10.64,10.64,0,0,0,1.749-1.457,14.506,14.506,0,0,0,1.431-1.723,13.829,13.829,0,0,0,1.457-2.941,10.518,10.518,0,0,0,.61-3.206,11.754,11.754,0,0,0-.265-3.339,23.63,23.63,0,0,0-.954-3.18,17.662,17.662,0,0,0-1.166-2.57,11.234,11.234,0,0,0-1.7-2.306,4.76,4.76,0,0,0-.689-.53q-.477-.318-1.034-.636t-1.06-.583a5.835,5.835,0,0,0-.822-.371,4.708,4.708,0,0,0-1.722-.106q-.875.106-1.776.212a19.089,19.089,0,0,0-2.2.556,10.506,10.506,0,0,0-2.094.928,11.66,11.66,0,0,0-1.829,1.139,21.26,21.26,0,0,0-1.669,1.4,4.568,4.568,0,0,0-.715,1.087q-.4.769-.769,1.643t-.636,1.7q-.265.821-.371,1.246a17.183,17.183,0,0,0-.212,5.724,13.541,13.541,0,0,0,1.8,5.353,9.029,9.029,0,0,0,1.139,1.59A6.958,6.958,0,0,0,56.916,33.739ZM89.3,37.979a2.715,2.715,0,0,1-.9,1.749,2.846,2.846,0,0,1-1.617.715,2.61,2.61,0,0,1-1.67-.424,2.493,2.493,0,0,1-1.06-1.617,3.742,3.742,0,0,1-.079-1.139q.026-.821.079-1.749t.132-1.749q.08-.821.132-1.139.424-5.141.662-10.176t.4-10.176a3.605,3.605,0,0,1,.5-1.616,4.889,4.889,0,0,1,1.087-1.3,11.837,11.837,0,0,1,3.9-1.855,30.589,30.589,0,0,1,4.319-.848A18.587,18.587,0,0,1,98.335,6.5a8.773,8.773,0,0,1,3.048.636,7.7,7.7,0,0,1,1.245.663,5.486,5.486,0,0,1,1.087.928,4.947,4.947,0,0,1,1.139,1.828,8.812,8.812,0,0,1,.5,2.2,7.136,7.136,0,0,1-.239,2.173,9.947,9.947,0,0,1-.821,2.12,11.535,11.535,0,0,1-1.537,2.252,21.927,21.927,0,0,1-1.908,1.935,16.449,16.449,0,0,1-2.783,2.146q-1.51.928-3.048,1.829a5.363,5.363,0,0,0,.9.45,5.364,5.364,0,0,1,.9.451,21.309,21.309,0,0,1,2.332,1.3q1.113.716,2.226,1.4.212.159.795.53t1.193.795q.61.424,1.139.822a2.748,2.748,0,0,1,.689.662A2.25,2.25,0,0,1,105.676,33a2.877,2.877,0,0,1-.318,1.351,2.6,2.6,0,0,1-.954,1.007,2.644,2.644,0,0,1-1.431.4,3.175,3.175,0,0,1-.821-.106,1.441,1.441,0,0,1-.662-.371Q100,34.057,98.494,32.917t-3.1-2.2q-.159-.106-.742-.451t-1.219-.715q-.636-.371-1.192-.716t-.715-.45a8.886,8.886,0,0,1-1.06-.9,3.6,3.6,0,0,1-.742-1.06q0,2.014-.026,3.975t-.186,3.922q0,.159-.026.689t-.053,1.139q-.027.61-.08,1.139T89.3,37.979Zm-.477-25.864q.424,2.968.61,5.909t.238,5.91q.212-.424.424-.821a1.908,1.908,0,0,1,.583-.663,15.4,15.4,0,0,1,1.4-1.06q.715-.477,1.457-.954a21.894,21.894,0,0,0,3.789-2.915,15.066,15.066,0,0,0,2.889-3.763,3.151,3.151,0,0,0,.318-1.06,1.646,1.646,0,0,0-.106-1.06,2.05,2.05,0,0,0-1.378-.769,8.158,8.158,0,0,0-1.7-.238,23.919,23.919,0,0,0-2.756.053,22.614,22.614,0,0,0-2.7.371l-1.59.424A5.538,5.538,0,0,0,88.822,12.115ZM117.23,39.834a2.272,2.272,0,0,1-2.173.265,2.382,2.382,0,0,1-1.537-1.537,15.842,15.842,0,0,1-.636-3.127q-.159-1.59-.265-3.233-.265-4.876-.08-9.726t.5-9.726q0-.265.053-.954t.106-1.484q.053-.795.132-1.51t.132-.98a2.943,2.943,0,0,1,.424-1.166,1.443,1.443,0,0,1,.875-.8,1.551,1.551,0,0,1,1.192.053,12.715,12.715,0,0,1,4.055-1.139,14.52,14.52,0,0,1,8.665,1.59,15.717,15.717,0,0,1,3.79,2.7,16.119,16.119,0,0,1,2.835,3.683,15.029,15.029,0,0,1,1.643,4.4,13.421,13.421,0,0,1,.265,3.577,14.6,14.6,0,0,1-.636,3.524,15.073,15.073,0,0,1-2.226,4.293,18.509,18.509,0,0,1-3.339,3.5,40.489,40.489,0,0,1-4.69,3.18,33.7,33.7,0,0,1-5.168,2.438q-.689.265-1.4.5a13.649,13.649,0,0,1-1.458.4q-.106,0-.106.132a.259.259,0,0,1-.053.186l-.424.53A1.793,1.793,0,0,1,117.23,39.834Zm0-29.945q.159,2.756.159,5.512v5.512q0,2.756.027,5.512t.291,5.512q.371-.106.689-.212l.636-.212a29.528,29.528,0,0,0,4.584-2.2,24.288,24.288,0,0,0,4.054-2.994,12.751,12.751,0,0,0,2.146-2.729,7.2,7.2,0,0,0,1.034-3.26,8.876,8.876,0,0,0-.663-4.055,10.855,10.855,0,0,0-2.253-3.525,16.286,16.286,0,0,0-1.961-1.669A8.776,8.776,0,0,0,123.7,9.889a8.3,8.3,0,0,0-3.233-.53A12.137,12.137,0,0,0,117.23,9.889Zm40.545,30.316q-2.332.583-4.664,1.033a32.426,32.426,0,0,1-4.717.556,5.82,5.82,0,0,1-2.279-.371,3.666,3.666,0,0,1-1.8-1.325,4.136,4.136,0,0,1-.689-1.431,12.658,12.658,0,0,1-.318-1.59,18.049,18.049,0,0,1-.212-3.365q.053-1.67.159-3.366.053-.53.186-1.722t.291-2.73q.159-1.537.371-3.259t.424-3.26q.212-1.537.345-2.7t.238-1.7a2.974,2.974,0,0,1-.186-.875,1.46,1.46,0,0,1,.238-.875,2.473,2.473,0,0,1,.742-.742,6.436,6.436,0,0,1,.954-.53,19.669,19.669,0,0,1,4.8-1.192q2.464-.291,4.956-.4l1.7-.106a9.079,9.079,0,0,1,1.7.053,3.189,3.189,0,0,1,1.722.689,2.8,2.8,0,0,1,.954,1.378,2.748,2.748,0,0,1-.027,1.643,2.48,2.48,0,0,1-1.113,1.378,3.41,3.41,0,0,1-1.219.4,4.387,4.387,0,0,1-1.272-.026,36.619,36.619,0,0,0-4.982-.5,28.527,28.527,0,0,0-5.035.292q0,.424-.106,1.749t-.238,2.836q-.132,1.51-.238,2.836t-.159,1.749q.9-.106,1.855-.212T152,24.358q.689-.053,1.378-.053a9.05,9.05,0,0,1,1.378.106,11.484,11.484,0,0,1,1.352.292,2.559,2.559,0,0,1,1.139.662,1.541,1.541,0,0,1,.53.583,2.118,2.118,0,0,1,.212,1.59,1.763,1.763,0,0,1-.715.981,3.584,3.584,0,0,1-1.139.557,6.039,6.039,0,0,1-2.253.106q-1.139-.159-2.305-.265-.9-.053-1.749-.053h-1.749q-.053,1.325-.027,2.624t.133,2.57q.053.689.132,1.352a10.511,10.511,0,0,0,.239,1.3q0,.106.185.079a2.192,2.192,0,0,1,.292-.027,19.364,19.364,0,0,0,2.438-.371q1.219-.265,2.438-.583.9-.265,1.723-.53t1.722-.53a3.4,3.4,0,0,1,1.749-.079,2.239,2.239,0,0,1,1.431.821,3.161,3.161,0,0,1,.689,1.961,1.978,1.978,0,0,1-.9,1.7,5.134,5.134,0,0,1-1.219.662A10.481,10.481,0,0,1,157.775,40.205Zm15.847-2.226a2.715,2.715,0,0,1-.9,1.749,2.846,2.846,0,0,1-1.617.715,2.61,2.61,0,0,1-1.669-.424,2.493,2.493,0,0,1-1.06-1.617,3.743,3.743,0,0,1-.079-1.139q.027-.821.079-1.749t.132-1.749q.08-.821.133-1.139.424-5.141.663-10.176t.4-10.176a3.605,3.605,0,0,1,.5-1.616,4.888,4.888,0,0,1,1.086-1.3,11.837,11.837,0,0,1,3.9-1.855,30.589,30.589,0,0,1,4.32-.848,18.586,18.586,0,0,1,3.153-.159,8.773,8.773,0,0,1,3.048.636,7.7,7.7,0,0,1,1.245.663,5.485,5.485,0,0,1,1.087.928,4.947,4.947,0,0,1,1.14,1.828,8.812,8.812,0,0,1,.5,2.2,7.137,7.137,0,0,1-.238,2.173,9.947,9.947,0,0,1-.822,2.12,11.535,11.535,0,0,1-1.537,2.252,21.925,21.925,0,0,1-1.908,1.935,16.448,16.448,0,0,1-2.783,2.146q-1.511.928-3.048,1.829a5.363,5.363,0,0,0,.9.45,5.363,5.363,0,0,1,.9.451,21.307,21.307,0,0,1,2.332,1.3q1.113.716,2.226,1.4.212.159.795.53t1.193.795q.609.424,1.139.822a2.748,2.748,0,0,1,.689.662A2.25,2.25,0,0,1,190,33a2.877,2.877,0,0,1-.318,1.351,2.6,2.6,0,0,1-.954,1.007,2.644,2.644,0,0,1-1.431.4,3.175,3.175,0,0,1-.822-.106,1.441,1.441,0,0,1-.663-.371q-1.484-1.219-2.994-2.359t-3.1-2.2q-.159-.106-.742-.451t-1.219-.715q-.636-.371-1.193-.716t-.715-.45a8.886,8.886,0,0,1-1.06-.9,3.6,3.6,0,0,1-.742-1.06q0,2.014-.027,3.975t-.186,3.922q0,.159-.027.689t-.053,1.139q-.027.61-.079,1.139T173.622,37.979Zm-.477-25.864q.424,2.968.609,5.909t.238,5.91q.212-.424.424-.821A1.908,1.908,0,0,1,175,22.45a15.4,15.4,0,0,1,1.4-1.06q.716-.477,1.458-.954a21.9,21.9,0,0,0,3.79-2.915,15.065,15.065,0,0,0,2.888-3.763,3.15,3.15,0,0,0,.318-1.06,1.646,1.646,0,0,0-.106-1.06,2.05,2.05,0,0,0-1.378-.769,8.158,8.158,0,0,0-1.7-.238,23.919,23.919,0,0,0-2.756.053,22.614,22.614,0,0,0-2.7.371l-1.59.424A5.538,5.538,0,0,0,173.145,12.115Zm41.764,24.751a1.8,1.8,0,0,1-.795.927,2.271,2.271,0,0,1-2.226,0,2.132,2.132,0,0,1-.848-.875,6.619,6.619,0,0,1-.556-1.8q-.239-1.219-.424-2.7t-.344-3.154q-.159-1.67-.238-3.18t-.159-2.756q-.08-1.246-.08-1.934-.106-1.325-.159-2.624a21.752,21.752,0,0,1,.053-2.623,8.32,8.32,0,0,1,.344-1.458,4.062,4.062,0,0,1,.715-1.3,6.515,6.515,0,0,1,.795-.769,2.165,2.165,0,0,1,.954-.45,3.27,3.27,0,0,1,1.908.159,6.372,6.372,0,0,1,1.749.954,10.823,10.823,0,0,1,2.146,1.961q.927,1.113,1.829,2.332,1.7,2.279,3.206,4.664t3.207,4.717q.742,1.007,1.563,1.961a23.788,23.788,0,0,0,1.723,1.8q.053-.583.186-1.882t.265-2.994q.132-1.7.238-3.551t.212-3.551q.106-1.7.186-2.995t.079-1.882q0-.477-.027-.927a3.354,3.354,0,0,1,.079-.928,2.627,2.627,0,0,1,.4-.848q.292-.424.556-.8a2.148,2.148,0,0,1,1.272-.8,2.1,2.1,0,0,1,1.484.106,2.747,2.747,0,0,1,1.033.848,4.125,4.125,0,0,1,.663,1.219,3.122,3.122,0,0,1,.132,1.06q-.027.53-.079,1.113-.477,4.134-.768,8.189t-.98,8.135a20.056,20.056,0,0,1-.451,2.014,9.018,9.018,0,0,1-.769,1.934,4.531,4.531,0,0,1-1.192,1.431,2.218,2.218,0,0,1-1.67.451q-.159,0-.742-.027a3.6,3.6,0,0,1-.742-.079,6.056,6.056,0,0,1-2.305-1.272,21.925,21.925,0,0,1-1.935-1.908,36.776,36.776,0,0,1-2.756-3.445q-1.272-1.8-2.464-3.657T216.737,22a32.31,32.31,0,0,0-2.73-3.472q-.053.636-.026,1.961t.079,2.941q.053,1.616.132,3.419t.212,3.445q.132,1.643.265,2.942a14.911,14.911,0,0,0,.292,1.934,3.485,3.485,0,0,1,.106.848A2.4,2.4,0,0,1,214.909,36.866Zm45.845-1.378a12.51,12.51,0,0,1-4.293,2.65,10.762,10.762,0,0,1-4.929.636,11.916,11.916,0,0,1-3.074-.636,11.076,11.076,0,0,1-2.809-1.431,10.477,10.477,0,0,1-3.286-4.346,17.127,17.127,0,0,1-1.113-4.426,14.955,14.955,0,0,1,.159-4.531,15.878,15.878,0,0,1,1.378-4.081A13.009,13.009,0,0,1,245.6,15.8a11.561,11.561,0,0,1,3.816-2.306q.53-.159,1.034-.291a4.044,4.044,0,0,1,1.033-.132,2.614,2.614,0,0,0,.636-.08,6.829,6.829,0,0,1,.689-.132,8.94,8.94,0,0,1,4.4.477,9.446,9.446,0,0,1,3.71,2.438,11.09,11.09,0,0,1,2.014,2.862,16.593,16.593,0,0,1,1.431,4.717,17.733,17.733,0,0,1,.053,4.929,11.674,11.674,0,0,1-1.245,3.9A13.414,13.414,0,0,1,260.754,35.488Zm-8.957-1.8a7,7,0,0,0,4.32-.875,7.287,7.287,0,0,0,3.048-3.154,7.792,7.792,0,0,0,.636-1.8,11.8,11.8,0,0,0,.265-1.908,11.6,11.6,0,0,0-.371-3.6,6.915,6.915,0,0,0-1.7-3.127,5.733,5.733,0,0,0-1.431-1.113,3.524,3.524,0,0,0-1.749-.477,5.532,5.532,0,0,0-1.7.159,10.489,10.489,0,0,0-1.59.53,22.613,22.613,0,0,0-2.385,1.325,6.657,6.657,0,0,0-1.908,1.8,2.475,2.475,0,0,0-.318.663,4.437,4.437,0,0,1-.318.715,9.676,9.676,0,0,0-.424,2.862,12.689,12.689,0,0,0,.318,2.862,13.941,13.941,0,0,0,.689,1.988,5.5,5.5,0,0,0,1.166,1.723,4.838,4.838,0,0,0,1.617.98A7.9,7.9,0,0,0,251.8,33.686ZM301.034,38.3a5.756,5.756,0,0,1-2.147.954,7.927,7.927,0,0,1-5.327-.689,8.537,8.537,0,0,1-2.332-1.59,15.858,15.858,0,0,1-1.908-2.173,26,26,0,0,1-2.147-3.551q-.927-1.855-1.987-3.6-.212.318-.822,1.325t-1.325,2.12q-.715,1.113-1.325,2.093t-.822,1.3q-.689.954-1.378,1.855a11.923,11.923,0,0,1-1.59,1.7,5.758,5.758,0,0,1-2.491,1.272,3.554,3.554,0,0,1-1.828-.159,4.41,4.41,0,0,1-1.564-.98,6.124,6.124,0,0,1-1.166-1.564,7.368,7.368,0,0,1-.689-1.855,12.637,12.637,0,0,1-.424-2.835q-.053-1.457-.053-2.942a39.258,39.258,0,0,1,.477-5.379,47.034,47.034,0,0,1,1.166-5.327q.053-.212.212-.715t.318-1.06q.159-.556.345-1.033a1.975,1.975,0,0,1,.344-.636,3.979,3.979,0,0,0,.371-.424,1.845,1.845,0,0,1,.371-.371,2.473,2.473,0,0,1,1.034-.4,2.019,2.019,0,0,1,1.034.106,1.867,1.867,0,0,1,.795.583,1.52,1.52,0,0,1,.318.981,1.418,1.418,0,0,1-.106.53l-.212.53q-.106.583-.265,1.14t-.265,1.139q-.583,3.657-.874,7.394a21.844,21.844,0,0,0,.662,7.34q.212-.265.689-.954t1.087-1.59q.61-.9,1.246-1.908t1.245-1.908q.61-.9,1.06-1.59t.663-.954a7.781,7.781,0,0,1,1.193-1.325,4.205,4.205,0,0,1,1.457-.848,3.392,3.392,0,0,1,2.438.053,4.183,4.183,0,0,1,1.219.715,5.916,5.916,0,0,1,.954,1.034,23.171,23.171,0,0,1,1.961,3.233q.848,1.7,1.8,3.286.583.954,1.219,1.855a7.278,7.278,0,0,0,1.537,1.59,3.9,3.9,0,0,0,1.669.662,2.07,2.07,0,0,0,1.669-.291,1.133,1.133,0,0,0,.345-.583,6.726,6.726,0,0,0,.212-.9,8.779,8.779,0,0,0,.106-.928q.027-.45.027-.768a18.827,18.827,0,0,0-.159-2.438q-.265-2.915-.768-5.751t-.98-5.7q-.159-.9-.344-1.855a4.37,4.37,0,0,1,.026-1.855,2.432,2.432,0,0,1,.477-1.113,2.606,2.606,0,0,1,.9-.742,3.13,3.13,0,0,1,1.139-.318,2.348,2.348,0,0,1,1.193.212,2.492,2.492,0,0,1,.768.61,6.578,6.578,0,0,1,.61.821,1.716,1.716,0,0,1,.265.927,8.874,8.874,0,0,0,.053.981q.265,3.021.636,6.042t.689,6.1a49.665,49.665,0,0,1,.159,5.141,11.8,11.8,0,0,1-.265,1.908,8.858,8.858,0,0,1-.636,1.855A5.236,5.236,0,0,1,301.034,38.3Z" transform="translate(785 678.031)" fill="#e7e7e7"/></g></svg>